<?xml version="1.0" encoding="UTF-8" standalone="no"?>
<!DOCTYPE svg PUBLIC "-//W3C//DTD SVG 1.1//EN"
 "http://www.w3.org/Graphics/SVG/1.1/DTD/svg11.dtd">
<!-- Generated by graphviz version 2.38.0 (20140413.2041)
 -->
<!-- Title: ComputeIQMs Pages: 1 -->
<svg width="1056pt" height="355pt"
 viewBox="0.00 0.00 1056.06 355.00" xmlns="http://www.w3.org/2000/svg" xmlns:xlink="http://www.w3.org/1999/xlink">
<g id="graph0" class="graph" transform="scale(1 1) rotate(0) translate(4 351)">
<title>ComputeIQMs</title>
<polygon fill="white" stroke="none" points="-4,4 -4,-351 1052.06,-351 1052.06,4 -4,4"/>
<text text-anchor="middle" x="524.028" y="-7.8" font-family="Times,serif" font-size="14.00">ComputeIQMs</text>
<!-- ComputeIQMs_inputnode -->
<g id="node1" class="node"><title>ComputeIQMs_inputnode</title>
<ellipse fill="none" stroke="black" cx="532.592" cy="-329" rx="88.2844" ry="18"/>
<text text-anchor="middle" x="532.592" y="-325.3" font-family="Times,serif" font-size="14.00">inputnode (interfaces)</text>
</g>
<!-- ComputeIQMs_metadata -->
<g id="node2" class="node"><title>ComputeIQMs_metadata</title>
<ellipse fill="none" stroke="black" cx="357.592" cy="-185" rx="65.7887" ry="18"/>
<text text-anchor="middle" x="357.592" y="-181.3" font-family="Times,serif" font-size="14.00">metadata (bids)</text>
</g>
<!-- ComputeIQMs_inputnode&#45;&gt;ComputeIQMs_metadata -->
<g id="edge1" class="edge"><title>ComputeIQMs_inputnode&#45;&gt;ComputeIQMs_metadata</title>
<path fill="none" stroke="black" d="M446.736,-324.635C368.518,-319.551 261.252,-306.82 234.592,-275 224.316,-262.736 225.797,-252.366 234.592,-239 248.012,-218.604 271.115,-206.023 293.701,-198.278"/>
<polygon fill="black" stroke="black" points="294.834,-201.59 303.319,-195.246 292.73,-194.914 294.834,-201.59"/>
</g>
<!-- ComputeIQMs_provenance -->
<g id="node3" class="node"><title>ComputeIQMs_provenance</title>
<ellipse fill="none" stroke="black" cx="93.5917" cy="-257" rx="93.6835" ry="18"/>
<text text-anchor="middle" x="93.5917" y="-253.3" font-family="Times,serif" font-size="14.00">provenance (interfaces)</text>
</g>
<!-- ComputeIQMs_inputnode&#45;&gt;ComputeIQMs_provenance -->
<g id="edge2" class="edge"><title>ComputeIQMs_inputnode&#45;&gt;ComputeIQMs_provenance</title>
<path fill="none" stroke="black" d="M461.37,-318.193C380.788,-306.075 250.613,-285.384 168.547,-271.702"/>
<polygon fill="black" stroke="black" points="168.977,-268.225 158.537,-270.027 167.822,-275.129 168.977,-268.225"/>
</g>
<!-- ComputeIQMs_inputnode&#45;&gt;ComputeIQMs_provenance -->
<g id="edge3" class="edge"><title>ComputeIQMs_inputnode&#45;&gt;ComputeIQMs_provenance</title>
<path fill="none" stroke="black" d="M465.439,-317.292C386.849,-304.761 256.845,-284.031 173.236,-270.7"/>
<polygon fill="black" stroke="black" points="173.703,-267.23 163.276,-269.111 172.6,-274.142 173.703,-267.23"/>
</g>
<!-- ComputeIQMs_inputnode&#45;&gt;ComputeIQMs_provenance -->
<g id="edge4" class="edge"><title>ComputeIQMs_inputnode&#45;&gt;ComputeIQMs_provenance</title>
<path fill="none" stroke="black" d="M469.496,-316.284C392.42,-303.33 262.339,-282.589 177.073,-269.659"/>
<polygon fill="black" stroke="black" points="177.573,-266.195 167.162,-268.16 176.526,-273.116 177.573,-266.195"/>
</g>
<!-- ComputeIQMs_ComputeQI2 -->
<g id="node4" class="node"><title>ComputeIQMs_ComputeQI2</title>
<ellipse fill="none" stroke="black" cx="902.592" cy="-185" rx="104.782" ry="18"/>
<text text-anchor="middle" x="902.592" y="-181.3" font-family="Times,serif" font-size="14.00">ComputeQI2 (anatomical)</text>
</g>
<!-- ComputeIQMs_inputnode&#45;&gt;ComputeIQMs_ComputeQI2 -->
<g id="edge5" class="edge"><title>ComputeIQMs_inputnode&#45;&gt;ComputeIQMs_ComputeQI2</title>
<path fill="none" stroke="black" d="M618.69,-324.77C752.068,-319.003 995.92,-304.654 1022.59,-275 1033.29,-263.104 1031.5,-252.291 1022.59,-239 1011.46,-222.387 994.077,-210.977 975.944,-203.141"/>
<polygon fill="black" stroke="black" points="977.008,-199.798 966.422,-199.361 974.425,-206.304 977.008,-199.798"/>
</g>
<!-- ComputeIQMs_inputnode&#45;&gt;ComputeIQMs_ComputeQI2 -->
<g id="edge6" class="edge"><title>ComputeIQMs_inputnode&#45;&gt;ComputeIQMs_ComputeQI2</title>
<path fill="none" stroke="black" d="M619.151,-325.212C756.931,-319.757 1013.21,-305.444 1040.59,-275 1051.29,-263.104 1049.5,-252.291 1040.59,-239 1028.32,-220.687 1008.45,-208.696 987.549,-200.846"/>
<polygon fill="black" stroke="black" points="988.489,-197.469 977.895,-197.524 986.211,-204.088 988.489,-197.469"/>
</g>
<!-- ComputeIQMs_harmonize -->
<g id="node5" class="node"><title>ComputeIQMs_harmonize</title>
<ellipse fill="none" stroke="black" cx="719.592" cy="-257" rx="95.5831" ry="18"/>
<text text-anchor="middle" x="719.592" y="-253.3" font-family="Times,serif" font-size="14.00">harmonize (anatomical)</text>
</g>
<!-- ComputeIQMs_inputnode&#45;&gt;ComputeIQMs_harmonize -->
<g id="edge7" class="edge"><title>ComputeIQMs_inputnode&#45;&gt;ComputeIQMs_harmonize</title>
<path fill="none" stroke="black" d="M568.373,-312.465C595.677,-301.77 633.649,-287.519 664.754,-276.277"/>
<polygon fill="black" stroke="black" points="665.941,-279.569 674.167,-272.892 663.572,-272.982 665.941,-279.569"/>
</g>
<!-- ComputeIQMs_inputnode&#45;&gt;ComputeIQMs_harmonize -->
<g id="edge8" class="edge"><title>ComputeIQMs_inputnode&#45;&gt;ComputeIQMs_harmonize</title>
<path fill="none" stroke="black" d="M577.407,-313.326C606.535,-302.916 644.319,-288.836 673.66,-277.485"/>
<polygon fill="black" stroke="black" points="675.212,-280.637 683.262,-273.75 672.674,-274.114 675.212,-280.637"/>
</g>
<!-- ComputeIQMs_smoothness -->
<g id="node6" class="node"><title>ComputeIQMs_smoothness</title>
<ellipse fill="none" stroke="black" cx="927.592" cy="-257" rx="94.7833" ry="18"/>
<text text-anchor="middle" x="927.592" y="-253.3" font-family="Times,serif" font-size="14.00">smoothness (interfaces)</text>
</g>
<!-- ComputeIQMs_inputnode&#45;&gt;ComputeIQMs_smoothness -->
<g id="edge17" class="edge"><title>ComputeIQMs_inputnode&#45;&gt;ComputeIQMs_smoothness</title>
<path fill="none" stroke="black" d="M594.381,-316.125C662.966,-303.62 773.706,-283.985 848.546,-271.052"/>
<polygon fill="black" stroke="black" points="849.143,-274.501 858.402,-269.352 847.953,-267.603 849.143,-274.501"/>
</g>
<!-- ComputeIQMs_inputnode&#45;&gt;ComputeIQMs_smoothness -->
<g id="edge18" class="edge"><title>ComputeIQMs_inputnode&#45;&gt;ComputeIQMs_smoothness</title>
<path fill="none" stroke="black" d="M599.373,-317.062C669.731,-304.962 780.146,-285.423 853.228,-272.162"/>
<polygon fill="black" stroke="black" points="854.072,-275.566 863.285,-270.333 852.82,-268.678 854.072,-275.566"/>
</g>
<!-- ComputeIQMs_MNItpms2t1 -->
<g id="node7" class="node"><title>ComputeIQMs_MNItpms2t1</title>
<ellipse fill="none" stroke="black" cx="342.592" cy="-257" rx="99.3824" ry="18"/>
<text text-anchor="middle" x="342.592" y="-253.3" font-family="Times,serif" font-size="14.00">MNItpms2t1 (interfaces)</text>
</g>
<!-- ComputeIQMs_inputnode&#45;&gt;ComputeIQMs_MNItpms2t1 -->
<g id="edge19" class="edge"><title>ComputeIQMs_inputnode&#45;&gt;ComputeIQMs_MNItpms2t1</title>
<path fill="none" stroke="black" d="M487.631,-313.496C457.944,-303.053 419.221,-288.851 389.209,-277.429"/>
<polygon fill="black" stroke="black" points="390.384,-274.131 379.794,-273.826 387.883,-280.669 390.384,-274.131"/>
</g>
<!-- ComputeIQMs_inputnode&#45;&gt;ComputeIQMs_MNItpms2t1 -->
<g id="edge20" class="edge"><title>ComputeIQMs_inputnode&#45;&gt;ComputeIQMs_MNItpms2t1</title>
<path fill="none" stroke="black" d="M496.145,-312.465C468.477,-301.806 430.063,-287.616 398.537,-276.392"/>
<polygon fill="black" stroke="black" points="399.588,-273.052 388.994,-273.011 397.251,-279.65 399.588,-273.052"/>
</g>
<!-- ComputeIQMs_measures -->
<g id="node8" class="node"><title>ComputeIQMs_measures</title>
<ellipse fill="none" stroke="black" cx="532.592" cy="-185" rx="90.9839" ry="18"/>
<text text-anchor="middle" x="532.592" y="-181.3" font-family="Times,serif" font-size="14.00">measures (anatomical)</text>
</g>
<!-- ComputeIQMs_inputnode&#45;&gt;ComputeIQMs_measures -->
<g id="edge9" class="edge"><title>ComputeIQMs_inputnode&#45;&gt;ComputeIQMs_measures</title>
<path fill="none" stroke="black" d="M501.348,-311.987C482.128,-287.378 480.217,-240.061 495.616,-210.937"/>
<polygon fill="black" stroke="black" points="498.783,-212.482 501.224,-202.173 492.886,-208.709 498.783,-212.482"/>
</g>
<!-- ComputeIQMs_inputnode&#45;&gt;ComputeIQMs_measures -->
<g id="edge10" class="edge"><title>ComputeIQMs_inputnode&#45;&gt;ComputeIQMs_measures</title>
<path fill="none" stroke="black" d="M509.97,-311.433C496.68,-286.957 495.294,-240.912 505.811,-211.936"/>
<polygon fill="black" stroke="black" points="509.159,-213.021 510.027,-202.462 502.764,-210.174 509.159,-213.021"/>
</g>
<!-- ComputeIQMs_inputnode&#45;&gt;ComputeIQMs_measures -->
<g id="edge11" class="edge"><title>ComputeIQMs_inputnode&#45;&gt;ComputeIQMs_measures</title>
<path fill="none" stroke="black" d="M518.928,-311.153C511.105,-286.813 510.251,-241.568 516.367,-212.665"/>
<polygon fill="black" stroke="black" points="519.796,-213.385 518.935,-202.825 513.023,-211.617 519.796,-213.385"/>
</g>
<!-- ComputeIQMs_inputnode&#45;&gt;ComputeIQMs_measures -->
<g id="edge12" class="edge"><title>ComputeIQMs_inputnode&#45;&gt;ComputeIQMs_measures</title>
<path fill="none" stroke="black" d="M528.007,-310.871C525.449,-286.67 525.157,-242.211 527.133,-213.393"/>
<polygon fill="black" stroke="black" points="530.64,-213.45 528.001,-203.189 523.666,-212.857 530.64,-213.45"/>
</g>
<!-- ComputeIQMs_inputnode&#45;&gt;ComputeIQMs_measures -->
<g id="edge13" class="edge"><title>ComputeIQMs_inputnode&#45;&gt;ComputeIQMs_measures</title>
<path fill="none" stroke="black" d="M537.176,-310.871C539.735,-286.67 540.026,-242.211 538.051,-213.393"/>
<polygon fill="black" stroke="black" points="541.518,-212.857 537.183,-203.189 534.543,-213.45 541.518,-212.857"/>
</g>
<!-- ComputeIQMs_inputnode&#45;&gt;ComputeIQMs_measures -->
<g id="edge14" class="edge"><title>ComputeIQMs_inputnode&#45;&gt;ComputeIQMs_measures</title>
<path fill="none" stroke="black" d="M546.255,-311.153C554.079,-286.813 554.933,-241.568 548.817,-212.665"/>
<polygon fill="black" stroke="black" points="552.16,-211.617 546.248,-202.825 545.387,-213.385 552.16,-211.617"/>
</g>
<!-- ComputeIQMs_inputnode&#45;&gt;ComputeIQMs_measures -->
<g id="edge15" class="edge"><title>ComputeIQMs_inputnode&#45;&gt;ComputeIQMs_measures</title>
<path fill="none" stroke="black" d="M555.213,-311.433C568.503,-286.957 569.89,-240.912 559.372,-211.936"/>
<polygon fill="black" stroke="black" points="562.42,-210.174 555.156,-202.462 556.024,-213.021 562.42,-210.174"/>
</g>
<!-- ComputeIQMs_inputnode&#45;&gt;ComputeIQMs_measures -->
<g id="edge16" class="edge"><title>ComputeIQMs_inputnode&#45;&gt;ComputeIQMs_measures</title>
<path fill="none" stroke="black" d="M563.835,-311.987C583.056,-287.378 584.966,-240.061 569.567,-210.937"/>
<polygon fill="black" stroke="black" points="572.297,-208.709 563.959,-202.173 566.401,-212.482 572.297,-208.709"/>
</g>
<!-- ComputeIQMs_datasink -->
<g id="node9" class="node"><title>ComputeIQMs_datasink</title>
<ellipse fill="none" stroke="black" cx="357.592" cy="-113" rx="63.0888" ry="18"/>
<text text-anchor="middle" x="357.592" y="-109.3" font-family="Times,serif" font-size="14.00">datasink (bids)</text>
</g>
<!-- ComputeIQMs_metadata&#45;&gt;ComputeIQMs_datasink -->
<g id="edge21" class="edge"><title>ComputeIQMs_metadata&#45;&gt;ComputeIQMs_datasink</title>
<path fill="none" stroke="black" d="M328.992,-168.465C323.835,-159.765 322.551,-148.712 325.139,-138.839"/>
<polygon fill="black" stroke="black" points="328.418,-140.07 329.017,-129.492 321.952,-137.387 328.418,-140.07"/>
</g>
<!-- ComputeIQMs_metadata&#45;&gt;ComputeIQMs_datasink -->
<g id="edge22" class="edge"><title>ComputeIQMs_metadata&#45;&gt;ComputeIQMs_datasink</title>
<path fill="none" stroke="black" d="M340.072,-167.411C337.418,-159.304 336.699,-149.354 337.915,-140.248"/>
<polygon fill="black" stroke="black" points="341.335,-140.994 340.111,-130.47 334.505,-139.46 341.335,-140.994"/>
</g>
<!-- ComputeIQMs_metadata&#45;&gt;ComputeIQMs_datasink -->
<g id="edge23" class="edge"><title>ComputeIQMs_metadata&#45;&gt;ComputeIQMs_datasink</title>
<path fill="none" stroke="black" d="M351.713,-167.055C350.895,-159.346 350.653,-150.027 350.987,-141.364"/>
<polygon fill="black" stroke="black" points="354.486,-141.491 351.679,-131.275 347.502,-141.012 354.486,-141.491"/>
</g>
<!-- ComputeIQMs_metadata&#45;&gt;ComputeIQMs_datasink -->
<g id="edge24" class="edge"><title>ComputeIQMs_metadata&#45;&gt;ComputeIQMs_datasink</title>
<path fill="none" stroke="black" d="M363.47,-167.055C364.288,-159.346 364.53,-150.027 364.197,-141.364"/>
<polygon fill="black" stroke="black" points="367.681,-141.012 363.505,-131.275 360.697,-141.491 367.681,-141.012"/>
</g>
<!-- ComputeIQMs_metadata&#45;&gt;ComputeIQMs_datasink -->
<g id="edge25" class="edge"><title>ComputeIQMs_metadata&#45;&gt;ComputeIQMs_datasink</title>
<path fill="none" stroke="black" d="M375.111,-167.411C377.766,-159.304 378.485,-149.354 377.268,-140.248"/>
<polygon fill="black" stroke="black" points="380.678,-139.46 375.072,-130.47 373.849,-140.994 380.678,-139.46"/>
</g>
<!-- ComputeIQMs_metadata&#45;&gt;ComputeIQMs_datasink -->
<g id="edge26" class="edge"><title>ComputeIQMs_metadata&#45;&gt;ComputeIQMs_datasink</title>
<path fill="none" stroke="black" d="M386.192,-168.465C391.348,-159.765 392.632,-148.712 390.045,-138.839"/>
<polygon fill="black" stroke="black" points="393.231,-137.387 386.166,-129.492 386.766,-140.07 393.231,-137.387"/>
</g>
<!-- ComputeIQMs_provenance&#45;&gt;ComputeIQMs_datasink -->
<g id="edge27" class="edge"><title>ComputeIQMs_provenance&#45;&gt;ComputeIQMs_datasink</title>
<path fill="none" stroke="black" d="M123.619,-239.849C172.065,-213.791 267.368,-162.53 320.165,-134.131"/>
<polygon fill="black" stroke="black" points="322.047,-137.093 329.196,-129.273 318.731,-130.928 322.047,-137.093"/>
</g>
<!-- ComputeIQMs_ComputeQI2&#45;&gt;ComputeIQMs_datasink -->
<g id="edge28" class="edge"><title>ComputeIQMs_ComputeQI2&#45;&gt;ComputeIQMs_datasink</title>
<path fill="none" stroke="black" d="M821.588,-173.596C713.511,-159.714 524.169,-135.395 424.034,-122.534"/>
<polygon fill="black" stroke="black" points="424.404,-119.053 414.04,-121.25 423.512,-125.996 424.404,-119.053"/>
</g>
<!-- ComputeIQMs_outputnode -->
<g id="node10" class="node"><title>ComputeIQMs_outputnode</title>
<ellipse fill="none" stroke="black" cx="516.592" cy="-41" rx="92.8835" ry="18"/>
<text text-anchor="middle" x="516.592" y="-37.3" font-family="Times,serif" font-size="14.00">outputnode (interfaces)</text>
</g>
<!-- ComputeIQMs_ComputeQI2&#45;&gt;ComputeIQMs_outputnode -->
<g id="edge29" class="edge"><title>ComputeIQMs_ComputeQI2&#45;&gt;ComputeIQMs_outputnode</title>
<path fill="none" stroke="black" d="M860.179,-168.397C788.623,-142.074 644.222,-88.9519 567.383,-60.6848"/>
<polygon fill="black" stroke="black" points="568.499,-57.3662 557.905,-57.1983 566.082,-63.9357 568.499,-57.3662"/>
</g>
<!-- ComputeIQMs_harmonize&#45;&gt;ComputeIQMs_measures -->
<g id="edge30" class="edge"><title>ComputeIQMs_harmonize&#45;&gt;ComputeIQMs_measures</title>
<path fill="none" stroke="black" d="M678.554,-240.638C650.323,-230.07 612.658,-215.971 582.66,-204.742"/>
<polygon fill="black" stroke="black" points="583.804,-201.433 573.212,-201.205 581.35,-207.989 583.804,-201.433"/>
</g>
<!-- ComputeIQMs_smoothness&#45;&gt;ComputeIQMs_measures -->
<g id="edge31" class="edge"><title>ComputeIQMs_smoothness&#45;&gt;ComputeIQMs_measures</title>
<path fill="none" stroke="black" d="M860.585,-244.125C790.582,-231.72 680.989,-212.298 608.001,-199.364"/>
<polygon fill="black" stroke="black" points="608.41,-195.882 597.953,-197.583 607.189,-202.774 608.41,-195.882"/>
</g>
<!-- ComputeIQMs_MNItpms2t1&#45;&gt;ComputeIQMs_measures -->
<g id="edge32" class="edge"><title>ComputeIQMs_MNItpms2t1&#45;&gt;ComputeIQMs_measures</title>
<path fill="none" stroke="black" d="M384.288,-240.638C413.07,-230.034 451.504,-215.874 482.034,-204.627"/>
<polygon fill="black" stroke="black" points="483.472,-207.827 491.646,-201.085 481.052,-201.258 483.472,-207.827"/>
</g>
<!-- ComputeIQMs_measures&#45;&gt;ComputeIQMs_datasink -->
<g id="edge33" class="edge"><title>ComputeIQMs_measures&#45;&gt;ComputeIQMs_datasink</title>
<path fill="none" stroke="black" d="M494.187,-168.638C466.978,-157.755 430.405,-143.125 401.95,-131.743"/>
<polygon fill="black" stroke="black" points="403.221,-128.482 392.637,-128.018 400.622,-134.982 403.221,-128.482"/>
</g>
<!-- ComputeIQMs_datasink&#45;&gt;ComputeIQMs_outputnode -->
<g id="edge34" class="edge"><title>ComputeIQMs_datasink&#45;&gt;ComputeIQMs_outputnode</title>
<path fill="none" stroke="black" d="M390.537,-97.496C414.03,-87.1529 445.899,-73.1227 471.714,-61.7574"/>
<polygon fill="black" stroke="black" points="473.182,-64.9352 480.924,-57.7026 470.362,-58.5286 473.182,-64.9352"/>
</g>
</g>
</svg>
