<?xml version="1.0" encoding="UTF-8" standalone="no"?>
<!DOCTYPE svg PUBLIC "-//W3C//DTD SVG 1.1//EN"
 "http://www.w3.org/Graphics/SVG/1.1/DTD/svg11.dtd">
<!-- Generated by graphviz version 2.38.0 (20140413.2041)
 -->
<!-- Title: fMRI_HMC_mcflirt Pages: 1 -->
<svg width="347pt" height="355pt"
 viewBox="0.00 0.00 346.53 355.00" xmlns="http://www.w3.org/2000/svg" xmlns:xlink="http://www.w3.org/1999/xlink">
<g id="graph0" class="graph" transform="scale(1 1) rotate(0) translate(4 351)">
<title>fMRI_HMC_mcflirt</title>
<polygon fill="white" stroke="none" points="-4,4 -4,-351 342.533,-351 342.533,4 -4,4"/>
<text text-anchor="middle" x="169.267" y="-7.8" font-family="Times,serif" font-size="14.00">fMRI_HMC_mcflirt</text>
<!-- fMRI_HMC_mcflirt_inputnode -->
<g id="node1" class="node"><title>fMRI_HMC_mcflirt_inputnode</title>
<ellipse fill="none" stroke="black" cx="199.792" cy="-329" rx="88.2844" ry="18"/>
<text text-anchor="middle" x="199.792" y="-325.3" font-family="Times,serif" font-size="14.00">inputnode (interfaces)</text>
</g>
<!-- fMRI_HMC_mcflirt_gen_ref -->
<g id="node2" class="node"><title>fMRI_HMC_mcflirt_gen_ref</title>
<ellipse fill="none" stroke="black" cx="85.7924" cy="-257" rx="85.5853" ry="18"/>
<text text-anchor="middle" x="85.7924" y="-253.3" font-family="Times,serif" font-size="14.00">gen_ref (registration)</text>
</g>
<!-- fMRI_HMC_mcflirt_inputnode&#45;&gt;fMRI_HMC_mcflirt_gen_ref -->
<g id="edge1" class="edge"><title>fMRI_HMC_mcflirt_inputnode&#45;&gt;fMRI_HMC_mcflirt_gen_ref</title>
<path fill="none" stroke="black" d="M173.352,-311.765C157.669,-302.135 137.603,-289.814 120.639,-279.397"/>
<polygon fill="black" stroke="black" points="122.443,-276.397 112.089,-274.147 118.78,-282.363 122.443,-276.397"/>
</g>
<!-- fMRI_HMC_mcflirt_MCFLIRT -->
<g id="node3" class="node"><title>fMRI_HMC_mcflirt_MCFLIRT</title>
<ellipse fill="none" stroke="black" cx="112.792" cy="-185" rx="91.784" ry="18"/>
<text text-anchor="middle" x="112.792" y="-181.3" font-family="Times,serif" font-size="14.00">MCFLIRT (interfaces)</text>
</g>
<!-- fMRI_HMC_mcflirt_inputnode&#45;&gt;fMRI_HMC_mcflirt_MCFLIRT -->
<g id="edge2" class="edge"><title>fMRI_HMC_mcflirt_inputnode&#45;&gt;fMRI_HMC_mcflirt_MCFLIRT</title>
<path fill="none" stroke="black" d="M199.56,-310.976C198.57,-292.051 194.714,-261.228 180.792,-239 173.121,-226.751 161.562,-216.202 150.139,-207.813"/>
<polygon fill="black" stroke="black" points="152.114,-204.923 141.904,-202.093 148.12,-210.672 152.114,-204.923"/>
</g>
<!-- fMRI_HMC_mcflirt_ComputeFD -->
<g id="node4" class="node"><title>fMRI_HMC_mcflirt_ComputeFD</title>
<ellipse fill="none" stroke="black" cx="237.792" cy="-113" rx="100.983" ry="18"/>
<text text-anchor="middle" x="237.792" y="-109.3" font-family="Times,serif" font-size="14.00">ComputeFD (algorithms)</text>
</g>
<!-- fMRI_HMC_mcflirt_inputnode&#45;&gt;fMRI_HMC_mcflirt_ComputeFD -->
<g id="edge3" class="edge"><title>fMRI_HMC_mcflirt_inputnode&#45;&gt;fMRI_HMC_mcflirt_ComputeFD</title>
<path fill="none" stroke="black" d="M202.838,-310.849C209.425,-273.753 225.041,-185.81 232.98,-141.103"/>
<polygon fill="black" stroke="black" points="236.43,-141.69 234.732,-131.232 229.538,-140.466 236.43,-141.69"/>
</g>
<!-- fMRI_HMC_mcflirt_gen_ref&#45;&gt;fMRI_HMC_mcflirt_MCFLIRT -->
<g id="edge4" class="edge"><title>fMRI_HMC_mcflirt_gen_ref&#45;&gt;fMRI_HMC_mcflirt_MCFLIRT</title>
<path fill="none" stroke="black" d="M92.4665,-238.697C95.5073,-230.813 99.175,-221.304 102.553,-212.546"/>
<polygon fill="black" stroke="black" points="105.862,-213.694 106.195,-203.104 99.3307,-211.175 105.862,-213.694"/>
</g>
<!-- fMRI_HMC_mcflirt_MCFLIRT&#45;&gt;fMRI_HMC_mcflirt_ComputeFD -->
<g id="edge5" class="edge"><title>fMRI_HMC_mcflirt_MCFLIRT&#45;&gt;fMRI_HMC_mcflirt_ComputeFD</title>
<path fill="none" stroke="black" d="M141.784,-167.765C159.014,-158.116 181.069,-145.765 199.693,-135.335"/>
<polygon fill="black" stroke="black" points="201.51,-138.33 208.525,-130.39 198.09,-132.222 201.51,-138.33"/>
</g>
<!-- fMRI_HMC_mcflirt_outputnode -->
<g id="node5" class="node"><title>fMRI_HMC_mcflirt_outputnode</title>
<ellipse fill="none" stroke="black" cx="172.792" cy="-41" rx="92.8835" ry="18"/>
<text text-anchor="middle" x="172.792" y="-37.3" font-family="Times,serif" font-size="14.00">outputnode (interfaces)</text>
</g>
<!-- fMRI_HMC_mcflirt_MCFLIRT&#45;&gt;fMRI_HMC_mcflirt_outputnode -->
<g id="edge6" class="edge"><title>fMRI_HMC_mcflirt_MCFLIRT&#45;&gt;fMRI_HMC_mcflirt_outputnode</title>
<path fill="none" stroke="black" d="M113.012,-166.806C113.845,-148.272 116.952,-118.299 127.792,-95 132.577,-84.7159 139.912,-74.8406 147.281,-66.4596"/>
<polygon fill="black" stroke="black" points="150.041,-68.6303 154.274,-58.9176 144.908,-63.8709 150.041,-68.6303"/>
</g>
<!-- fMRI_HMC_mcflirt_ComputeFD&#45;&gt;fMRI_HMC_mcflirt_outputnode -->
<g id="edge7" class="edge"><title>fMRI_HMC_mcflirt_ComputeFD&#45;&gt;fMRI_HMC_mcflirt_outputnode</title>
<path fill="none" stroke="black" d="M222.058,-95.055C214.074,-86.4567 204.231,-75.8566 195.447,-66.3974"/>
<polygon fill="black" stroke="black" points="197.752,-63.7354 188.382,-58.789 192.622,-68.4986 197.752,-63.7354"/>
</g>
</g>
</svg>
