<?xml version="1.0" encoding="UTF-8" standalone="no"?>
<!DOCTYPE svg PUBLIC "-//W3C//DTD SVG 1.1//EN"
 "http://www.w3.org/Graphics/SVG/1.1/DTD/svg11.dtd">
<!-- Generated by graphviz version 2.38.0 (20140413.2041)
 -->
<!-- Title: ReportsWorkflow Pages: 1 -->
<svg width="484pt" height="355pt"
 viewBox="0.00 0.00 483.63 355.00" xmlns="http://www.w3.org/2000/svg" xmlns:xlink="http://www.w3.org/1999/xlink">
<g id="graph0" class="graph" transform="scale(1 1) rotate(0) translate(4 351)">
<title>ReportsWorkflow</title>
<polygon fill="white" stroke="none" points="-4,4 -4,-351 479.631,-351 479.631,4 -4,4"/>
<text text-anchor="middle" x="237.816" y="-7.8" font-family="Times,serif" font-size="14.00">ReportsWorkflow</text>
<!-- ReportsWorkflow_inputnode -->
<g id="node1" class="node"><title>ReportsWorkflow_inputnode</title>
<ellipse fill="none" stroke="black" cx="204.091" cy="-329" rx="88.2844" ry="18"/>
<text text-anchor="middle" x="204.091" y="-325.3" font-family="Times,serif" font-size="14.00">inputnode (interfaces)</text>
</g>
<!-- ReportsWorkflow_PlotMosaicZoomed -->
<g id="node2" class="node"><title>ReportsWorkflow_PlotMosaicZoomed</title>
<ellipse fill="none" stroke="black" cx="100.091" cy="-257" rx="100.182" ry="18"/>
<text text-anchor="middle" x="100.091" y="-253.3" font-family="Times,serif" font-size="14.00">PlotMosaicZoomed (viz)</text>
</g>
<!-- ReportsWorkflow_inputnode&#45;&gt;ReportsWorkflow_PlotMosaicZoomed -->
<g id="edge2" class="edge"><title>ReportsWorkflow_inputnode&#45;&gt;ReportsWorkflow_PlotMosaicZoomed</title>
<path fill="none" stroke="black" d="M174.451,-311.941C159.694,-302.715 142.057,-290.977 127.605,-280.808"/>
<polygon fill="black" stroke="black" points="129.244,-277.677 119.072,-274.715 125.177,-283.374 129.244,-277.677"/>
</g>
<!-- ReportsWorkflow_inputnode&#45;&gt;ReportsWorkflow_PlotMosaicZoomed -->
<g id="edge3" class="edge"><title>ReportsWorkflow_inputnode&#45;&gt;ReportsWorkflow_PlotMosaicZoomed</title>
<path fill="none" stroke="black" d="M185.284,-311.411C172.23,-301.928 154.547,-289.924 138.626,-279.699"/>
<polygon fill="black" stroke="black" points="140.321,-276.629 130.002,-274.228 136.572,-282.541 140.321,-276.629"/>
</g>
<!-- ReportsWorkflow_PlotMosaicNoise -->
<g id="node3" class="node"><title>ReportsWorkflow_PlotMosaicNoise</title>
<ellipse fill="none" stroke="black" cx="309.091" cy="-257" rx="90.9839" ry="18"/>
<text text-anchor="middle" x="309.091" y="-253.3" font-family="Times,serif" font-size="14.00">PlotMosaicNoise (viz)</text>
</g>
<!-- ReportsWorkflow_inputnode&#45;&gt;ReportsWorkflow_PlotMosaicNoise -->
<g id="edge4" class="edge"><title>ReportsWorkflow_inputnode&#45;&gt;ReportsWorkflow_PlotMosaicNoise</title>
<path fill="none" stroke="black" d="M228.709,-311.588C242.694,-302.265 260.397,-290.462 275.628,-280.308"/>
<polygon fill="black" stroke="black" points="277.885,-283.011 284.264,-274.552 274.002,-277.186 277.885,-283.011"/>
</g>
<!-- ReportsWorkflow_GenerateReport -->
<g id="node5" class="node"><title>ReportsWorkflow_GenerateReport</title>
<ellipse fill="none" stroke="black" cx="367.091" cy="-113" rx="108.581" ry="18"/>
<text text-anchor="middle" x="367.091" y="-109.3" font-family="Times,serif" font-size="14.00">GenerateReport (interfaces)</text>
</g>
<!-- ReportsWorkflow_inputnode&#45;&gt;ReportsWorkflow_GenerateReport -->
<g id="edge1" class="edge"><title>ReportsWorkflow_inputnode&#45;&gt;ReportsWorkflow_GenerateReport</title>
<path fill="none" stroke="black" d="M276.819,-318.676C328.954,-310.326 392.746,-296.109 409.091,-275 438.479,-237.048 424.875,-212.331 409.091,-167 405.463,-156.581 398.84,-146.67 391.909,-138.298"/>
<polygon fill="black" stroke="black" points="394.503,-135.948 385.257,-130.776 389.26,-140.586 394.503,-135.948"/>
</g>
<!-- ReportsWorkflow_MergePlots -->
<g id="node4" class="node"><title>ReportsWorkflow_MergePlots</title>
<ellipse fill="none" stroke="black" cx="306.091" cy="-185" rx="94.4839" ry="18"/>
<text text-anchor="middle" x="306.091" y="-181.3" font-family="Times,serif" font-size="14.00">MergePlots (interfaces)</text>
</g>
<!-- ReportsWorkflow_PlotMosaicZoomed&#45;&gt;ReportsWorkflow_MergePlots -->
<g id="edge5" class="edge"><title>ReportsWorkflow_PlotMosaicZoomed&#45;&gt;ReportsWorkflow_MergePlots</title>
<path fill="none" stroke="black" d="M144.79,-240.811C176.346,-230.088 218.789,-215.666 252.217,-204.307"/>
<polygon fill="black" stroke="black" points="253.492,-207.57 261.834,-201.039 251.239,-200.942 253.492,-207.57"/>
</g>
<!-- ReportsWorkflow_PlotMosaicNoise&#45;&gt;ReportsWorkflow_MergePlots -->
<g id="edge6" class="edge"><title>ReportsWorkflow_PlotMosaicNoise&#45;&gt;ReportsWorkflow_MergePlots</title>
<path fill="none" stroke="black" d="M308.35,-238.697C308.019,-230.983 307.622,-221.712 307.253,-213.112"/>
<polygon fill="black" stroke="black" points="310.749,-212.945 306.824,-203.104 303.756,-213.245 310.749,-212.945"/>
</g>
<!-- ReportsWorkflow_MergePlots&#45;&gt;ReportsWorkflow_GenerateReport -->
<g id="edge7" class="edge"><title>ReportsWorkflow_MergePlots&#45;&gt;ReportsWorkflow_GenerateReport</title>
<path fill="none" stroke="black" d="M320.858,-167.055C328.24,-158.583 337.316,-148.168 345.466,-138.815"/>
<polygon fill="black" stroke="black" points="348.106,-141.114 352.037,-131.275 342.828,-136.515 348.106,-141.114"/>
</g>
<!-- ReportsWorkflow_dsplots -->
<g id="node6" class="node"><title>ReportsWorkflow_dsplots</title>
<ellipse fill="none" stroke="black" cx="367.091" cy="-41" rx="77.9862" ry="18"/>
<text text-anchor="middle" x="367.091" y="-37.3" font-family="Times,serif" font-size="14.00">dsplots (interfaces)</text>
</g>
<!-- ReportsWorkflow_GenerateReport&#45;&gt;ReportsWorkflow_dsplots -->
<g id="edge8" class="edge"><title>ReportsWorkflow_GenerateReport&#45;&gt;ReportsWorkflow_dsplots</title>
<path fill="none" stroke="black" d="M367.091,-94.6966C367.091,-86.9827 367.091,-77.7125 367.091,-69.1124"/>
<polygon fill="black" stroke="black" points="370.591,-69.1043 367.091,-59.1043 363.591,-69.1044 370.591,-69.1043"/>
</g>
</g>
</svg>
