<?xml version="1.0" encoding="UTF-8" standalone="no"?>
<!DOCTYPE svg PUBLIC "-//W3C//DTD SVG 1.1//EN"
 "http://www.w3.org/Graphics/SVG/1.1/DTD/svg11.dtd">
<!-- Generated by graphviz version 2.38.0 (20140413.2041)
 -->
<!-- Title: AFNISkullStripWorkflow Pages: 1 -->
<svg width="343pt" height="427pt"
 viewBox="0.00 0.00 343.33 427.00" xmlns="http://www.w3.org/2000/svg" xmlns:xlink="http://www.w3.org/1999/xlink">
<g id="graph0" class="graph" transform="scale(1 1) rotate(0) translate(4 423)">
<title>AFNISkullStripWorkflow</title>
<polygon fill="white" stroke="none" points="-4,4 -4,-423 339.334,-423 339.334,4 -4,4"/>
<text text-anchor="middle" x="167.667" y="-7.8" font-family="Times,serif" font-size="14.00">AFNISkullStripWorkflow</text>
<!-- AFNISkullStripWorkflow_inputnode -->
<g id="node1" class="node"><title>AFNISkullStripWorkflow_inputnode</title>
<ellipse fill="none" stroke="black" cx="246.942" cy="-401" rx="88.2844" ry="18"/>
<text text-anchor="middle" x="246.942" y="-397.3" font-family="Times,serif" font-size="14.00">inputnode (interfaces)</text>
</g>
<!-- AFNISkullStripWorkflow_inu_n4 -->
<g id="node2" class="node"><title>AFNISkullStripWorkflow_inu_n4</title>
<ellipse fill="none" stroke="black" cx="128.942" cy="-329" rx="77.1866" ry="18"/>
<text text-anchor="middle" x="128.942" y="-325.3" font-family="Times,serif" font-size="14.00">inu_n4 (interfaces)</text>
</g>
<!-- AFNISkullStripWorkflow_inputnode&#45;&gt;AFNISkullStripWorkflow_inu_n4 -->
<g id="edge2" class="edge"><title>AFNISkullStripWorkflow_inputnode&#45;&gt;AFNISkullStripWorkflow_inu_n4</title>
<path fill="none" stroke="black" d="M219.574,-383.765C203.224,-374.066 182.274,-361.638 164.635,-351.174"/>
<polygon fill="black" stroke="black" points="166.141,-347.998 155.755,-345.906 162.57,-354.018 166.141,-347.998"/>
</g>
<!-- AFNISkullStripWorkflow_sstrip_orig_vol -->
<g id="node4" class="node"><title>AFNISkullStripWorkflow_sstrip_orig_vol</title>
<ellipse fill="none" stroke="black" cx="219.942" cy="-185" rx="106.681" ry="18"/>
<text text-anchor="middle" x="219.942" y="-181.3" font-family="Times,serif" font-size="14.00">sstrip_orig_vol (interfaces)</text>
</g>
<!-- AFNISkullStripWorkflow_inputnode&#45;&gt;AFNISkullStripWorkflow_sstrip_orig_vol -->
<g id="edge1" class="edge"><title>AFNISkullStripWorkflow_inputnode&#45;&gt;AFNISkullStripWorkflow_sstrip_orig_vol</title>
<path fill="none" stroke="black" d="M258.813,-382.754C278.118,-352.394 311.868,-287.983 287.942,-239 281.869,-226.568 271.316,-216.204 260.31,-208.035"/>
<polygon fill="black" stroke="black" points="262.092,-205.012 251.872,-202.218 258.119,-210.775 262.092,-205.012"/>
</g>
<!-- AFNISkullStripWorkflow_skullstrip -->
<g id="node3" class="node"><title>AFNISkullStripWorkflow_skullstrip</title>
<ellipse fill="none" stroke="black" cx="192.942" cy="-257" rx="85.5853" ry="18"/>
<text text-anchor="middle" x="192.942" y="-253.3" font-family="Times,serif" font-size="14.00">skullstrip (interfaces)</text>
</g>
<!-- AFNISkullStripWorkflow_inu_n4&#45;&gt;AFNISkullStripWorkflow_skullstrip -->
<g id="edge3" class="edge"><title>AFNISkullStripWorkflow_inu_n4&#45;&gt;AFNISkullStripWorkflow_skullstrip</title>
<path fill="none" stroke="black" d="M144.434,-311.055C152.296,-302.457 161.987,-291.857 170.636,-282.397"/>
<polygon fill="black" stroke="black" points="173.427,-284.531 177.592,-274.789 168.261,-279.808 173.427,-284.531"/>
</g>
<!-- AFNISkullStripWorkflow_outputnode -->
<g id="node6" class="node"><title>AFNISkullStripWorkflow_outputnode</title>
<ellipse fill="none" stroke="black" cx="92.9418" cy="-41" rx="92.8835" ry="18"/>
<text text-anchor="middle" x="92.9418" y="-37.3" font-family="Times,serif" font-size="14.00">outputnode (interfaces)</text>
</g>
<!-- AFNISkullStripWorkflow_inu_n4&#45;&gt;AFNISkullStripWorkflow_outputnode -->
<g id="edge4" class="edge"><title>AFNISkullStripWorkflow_inu_n4&#45;&gt;AFNISkullStripWorkflow_outputnode</title>
<path fill="none" stroke="black" d="M108.349,-311.348C100.401,-301.381 92.6515,-288.131 88.9418,-275 68.5655,-202.879 75.0579,-113.144 83.6141,-69.0406"/>
<polygon fill="black" stroke="black" points="87.0715,-69.6107 85.7587,-59.0975 80.2289,-68.1347 87.0715,-69.6107"/>
</g>
<!-- AFNISkullStripWorkflow_inu_n4&#45;&gt;AFNISkullStripWorkflow_outputnode -->
<g id="edge5" class="edge"><title>AFNISkullStripWorkflow_inu_n4&#45;&gt;AFNISkullStripWorkflow_outputnode</title>
<path fill="none" stroke="black" d="M123.831,-310.878C118.16,-300.966 110.594,-287.925 106.942,-275 86.6086,-203.031 93.0306,-113.523 94.7848,-69.321"/>
<polygon fill="black" stroke="black" points="98.2902,-69.2041 95.1111,-59.0975 91.2938,-68.9807 98.2902,-69.2041"/>
</g>
<!-- AFNISkullStripWorkflow_skullstrip&#45;&gt;AFNISkullStripWorkflow_sstrip_orig_vol -->
<g id="edge6" class="edge"><title>AFNISkullStripWorkflow_skullstrip&#45;&gt;AFNISkullStripWorkflow_sstrip_orig_vol</title>
<path fill="none" stroke="black" d="M199.616,-238.697C202.657,-230.813 206.324,-221.304 209.702,-212.546"/>
<polygon fill="black" stroke="black" points="213.011,-213.694 213.344,-203.104 206.48,-211.175 213.011,-213.694"/>
</g>
<!-- AFNISkullStripWorkflow_binarize -->
<g id="node5" class="node"><title>AFNISkullStripWorkflow_binarize</title>
<ellipse fill="none" stroke="black" cx="225.942" cy="-113" rx="81.4863" ry="18"/>
<text text-anchor="middle" x="225.942" y="-109.3" font-family="Times,serif" font-size="14.00">binarize (interfaces)</text>
</g>
<!-- AFNISkullStripWorkflow_sstrip_orig_vol&#45;&gt;AFNISkullStripWorkflow_binarize -->
<g id="edge8" class="edge"><title>AFNISkullStripWorkflow_sstrip_orig_vol&#45;&gt;AFNISkullStripWorkflow_binarize</title>
<path fill="none" stroke="black" d="M221.425,-166.697C222.086,-158.983 222.881,-149.712 223.618,-141.112"/>
<polygon fill="black" stroke="black" points="227.109,-141.367 224.476,-131.104 220.134,-140.769 227.109,-141.367"/>
</g>
<!-- AFNISkullStripWorkflow_sstrip_orig_vol&#45;&gt;AFNISkullStripWorkflow_outputnode -->
<g id="edge7" class="edge"><title>AFNISkullStripWorkflow_sstrip_orig_vol&#45;&gt;AFNISkullStripWorkflow_outputnode</title>
<path fill="none" stroke="black" d="M185.263,-167.859C168.722,-158.833 149.61,-146.304 135.942,-131 119.76,-112.882 108.326,-87.5879 101.337,-68.5937"/>
<polygon fill="black" stroke="black" points="104.602,-67.3261 97.9979,-59.0413 97.994,-69.6362 104.602,-67.3261"/>
</g>
<!-- AFNISkullStripWorkflow_binarize&#45;&gt;AFNISkullStripWorkflow_outputnode -->
<g id="edge9" class="edge"><title>AFNISkullStripWorkflow_binarize&#45;&gt;AFNISkullStripWorkflow_outputnode</title>
<path fill="none" stroke="black" d="M195.762,-96.1159C177.019,-86.2514 152.724,-73.4646 132.457,-62.7974"/>
<polygon fill="black" stroke="black" points="133.942,-59.6238 123.462,-58.0635 130.682,-65.8183 133.942,-59.6238"/>
</g>
</g>
</svg>
