<?xml version="1.0" encoding="UTF-8" standalone="no"?>
<!DOCTYPE svg PUBLIC "-//W3C//DTD SVG 1.1//EN"
 "http://www.w3.org/Graphics/SVG/1.1/DTD/svg11.dtd">
<!-- Generated by graphviz version 2.38.0 (20140413.2041)
 -->
<!-- Title: AirMaskWorkflow Pages: 1 -->
<svg width="446pt" height="355pt"
 viewBox="0.00 0.00 445.95 355.00" xmlns="http://www.w3.org/2000/svg" xmlns:xlink="http://www.w3.org/1999/xlink">
<g id="graph0" class="graph" transform="scale(1 1) rotate(0) translate(4 351)">
<title>AirMaskWorkflow</title>
<polygon fill="white" stroke="none" points="-4,4 -4,-351 441.948,-351 441.948,4 -4,4"/>
<text text-anchor="middle" x="218.974" y="-7.8" font-family="Times,serif" font-size="14.00">AirMaskWorkflow</text>
<!-- AirMaskWorkflow_inputnode -->
<g id="node1" class="node"><title>AirMaskWorkflow_inputnode</title>
<ellipse fill="none" stroke="black" cx="308.54" cy="-329" rx="88.2844" ry="18"/>
<text text-anchor="middle" x="308.54" y="-325.3" font-family="Times,serif" font-size="14.00">inputnode (interfaces)</text>
</g>
<!-- AirMaskWorkflow_RotationMask -->
<g id="node2" class="node"><title>AirMaskWorkflow_RotationMask</title>
<ellipse fill="none" stroke="black" cx="108.54" cy="-185" rx="108.581" ry="18"/>
<text text-anchor="middle" x="108.54" y="-181.3" font-family="Times,serif" font-size="14.00">RotationMask (anatomical)</text>
</g>
<!-- AirMaskWorkflow_inputnode&#45;&gt;AirMaskWorkflow_RotationMask -->
<g id="edge1" class="edge"><title>AirMaskWorkflow_inputnode&#45;&gt;AirMaskWorkflow_RotationMask</title>
<path fill="none" stroke="black" d="M273.262,-312.448C253.003,-302.847 227.503,-289.597 206.54,-275 178.734,-255.637 150.452,-229.059 131.465,-209.998"/>
<polygon fill="black" stroke="black" points="133.927,-207.51 124.418,-202.839 128.939,-212.421 133.927,-207.51"/>
</g>
<!-- AirMaskWorkflow_invert_xfm -->
<g id="node3" class="node"><title>AirMaskWorkflow_invert_xfm</title>
<ellipse fill="none" stroke="black" cx="308.54" cy="-257" rx="92.8835" ry="18"/>
<text text-anchor="middle" x="308.54" y="-253.3" font-family="Times,serif" font-size="14.00">invert_xfm (interfaces)</text>
</g>
<!-- AirMaskWorkflow_inputnode&#45;&gt;AirMaskWorkflow_invert_xfm -->
<g id="edge4" class="edge"><title>AirMaskWorkflow_inputnode&#45;&gt;AirMaskWorkflow_invert_xfm</title>
<path fill="none" stroke="black" d="M302.625,-310.697C301.829,-302.983 301.602,-293.712 301.945,-285.112"/>
<polygon fill="black" stroke="black" points="305.439,-285.324 302.645,-275.104 298.456,-284.836 305.439,-285.324"/>
</g>
<!-- AirMaskWorkflow_inputnode&#45;&gt;AirMaskWorkflow_invert_xfm -->
<g id="edge5" class="edge"><title>AirMaskWorkflow_inputnode&#45;&gt;AirMaskWorkflow_invert_xfm</title>
<path fill="none" stroke="black" d="M314.456,-310.697C315.252,-302.983 315.478,-293.712 315.136,-285.112"/>
<polygon fill="black" stroke="black" points="318.625,-284.836 314.435,-275.104 311.642,-285.324 318.625,-284.836"/>
</g>
<!-- AirMaskWorkflow_ArtifactMask -->
<g id="node5" class="node"><title>AirMaskWorkflow_ArtifactMask</title>
<ellipse fill="none" stroke="black" cx="318.54" cy="-113" rx="105.082" ry="18"/>
<text text-anchor="middle" x="318.54" y="-109.3" font-family="Times,serif" font-size="14.00">ArtifactMask (anatomical)</text>
</g>
<!-- AirMaskWorkflow_inputnode&#45;&gt;AirMaskWorkflow_ArtifactMask -->
<g id="edge2" class="edge"><title>AirMaskWorkflow_inputnode&#45;&gt;AirMaskWorkflow_ArtifactMask</title>
<path fill="none" stroke="black" d="M352.888,-313.357C371.185,-305.275 390.56,-293.08 401.54,-275 426.457,-233.974 425.56,-208.558 401.54,-167 393.52,-153.123 380.334,-142.558 366.769,-134.657"/>
<polygon fill="black" stroke="black" points="368.313,-131.513 357.851,-129.841 364.987,-137.672 368.313,-131.513"/>
</g>
<!-- AirMaskWorkflow_inputnode&#45;&gt;AirMaskWorkflow_ArtifactMask -->
<g id="edge3" class="edge"><title>AirMaskWorkflow_inputnode&#45;&gt;AirMaskWorkflow_ArtifactMask</title>
<path fill="none" stroke="black" d="M365.179,-315.118C386.212,-307.082 407.731,-294.445 419.54,-275 444.457,-233.974 443.56,-208.558 419.54,-167 410.943,-152.125 396.41,-141.056 380.97,-132.993"/>
<polygon fill="black" stroke="black" points="382.34,-129.769 371.812,-128.587 379.306,-136.077 382.34,-129.769"/>
</g>
<!-- AirMaskWorkflow_RotationMask&#45;&gt;AirMaskWorkflow_ArtifactMask -->
<g id="edge6" class="edge"><title>AirMaskWorkflow_RotationMask&#45;&gt;AirMaskWorkflow_ArtifactMask</title>
<path fill="none" stroke="black" d="M154.626,-168.638C186.494,-158.016 229.066,-143.825 262.838,-132.568"/>
<polygon fill="black" stroke="black" points="264.182,-135.809 272.562,-129.326 261.969,-129.168 264.182,-135.809"/>
</g>
<!-- AirMaskWorkflow_outputnode -->
<g id="node6" class="node"><title>AirMaskWorkflow_outputnode</title>
<ellipse fill="none" stroke="black" cx="318.54" cy="-41" rx="92.8835" ry="18"/>
<text text-anchor="middle" x="318.54" y="-37.3" font-family="Times,serif" font-size="14.00">outputnode (interfaces)</text>
</g>
<!-- AirMaskWorkflow_RotationMask&#45;&gt;AirMaskWorkflow_outputnode -->
<g id="edge7" class="edge"><title>AirMaskWorkflow_RotationMask&#45;&gt;AirMaskWorkflow_outputnode</title>
<path fill="none" stroke="black" d="M123.857,-166.881C141.779,-147.587 173.032,-116.16 204.54,-95 224.339,-81.7043 248.004,-70.1031 268.629,-61.172"/>
<polygon fill="black" stroke="black" points="270.023,-64.3826 277.867,-57.2599 267.293,-57.9368 270.023,-64.3826"/>
</g>
<!-- AirMaskWorkflow_Binarize -->
<g id="node4" class="node"><title>AirMaskWorkflow_Binarize</title>
<ellipse fill="none" stroke="black" cx="318.54" cy="-185" rx="83.3857" ry="18"/>
<text text-anchor="middle" x="318.54" y="-181.3" font-family="Times,serif" font-size="14.00">Binarize (interfaces)</text>
</g>
<!-- AirMaskWorkflow_invert_xfm&#45;&gt;AirMaskWorkflow_Binarize -->
<g id="edge8" class="edge"><title>AirMaskWorkflow_invert_xfm&#45;&gt;AirMaskWorkflow_Binarize</title>
<path fill="none" stroke="black" d="M311.012,-238.697C312.114,-230.983 313.439,-221.712 314.667,-213.112"/>
<polygon fill="black" stroke="black" points="318.147,-213.499 316.097,-203.104 311.218,-212.509 318.147,-213.499"/>
</g>
<!-- AirMaskWorkflow_Binarize&#45;&gt;AirMaskWorkflow_ArtifactMask -->
<g id="edge9" class="edge"><title>AirMaskWorkflow_Binarize&#45;&gt;AirMaskWorkflow_ArtifactMask</title>
<path fill="none" stroke="black" d="M318.54,-166.697C318.54,-158.983 318.54,-149.712 318.54,-141.112"/>
<polygon fill="black" stroke="black" points="322.04,-141.104 318.54,-131.104 315.04,-141.104 322.04,-141.104"/>
</g>
<!-- AirMaskWorkflow_ArtifactMask&#45;&gt;AirMaskWorkflow_outputnode -->
<g id="edge10" class="edge"><title>AirMaskWorkflow_ArtifactMask&#45;&gt;AirMaskWorkflow_outputnode</title>
<path fill="none" stroke="black" d="M312.625,-94.6966C311.829,-86.9827 311.602,-77.7125 311.945,-69.1124"/>
<polygon fill="black" stroke="black" points="315.439,-69.3243 312.645,-59.1043 308.456,-68.8356 315.439,-69.3243"/>
</g>
<!-- AirMaskWorkflow_ArtifactMask&#45;&gt;AirMaskWorkflow_outputnode -->
<g id="edge11" class="edge"><title>AirMaskWorkflow_ArtifactMask&#45;&gt;AirMaskWorkflow_outputnode</title>
<path fill="none" stroke="black" d="M324.456,-94.6966C325.252,-86.9827 325.478,-77.7125 325.136,-69.1124"/>
<polygon fill="black" stroke="black" points="328.625,-68.8356 324.435,-59.1043 321.642,-69.3243 328.625,-68.8356"/>
</g>
</g>
</svg>
