<?xml version="1.0" encoding="UTF-8" standalone="no"?>
<!DOCTYPE svg PUBLIC "-//W3C//DTD SVG 1.1//EN"
 "http://www.w3.org/Graphics/SVG/1.1/DTD/svg11.dtd">
<!-- Generated by graphviz version 2.38.0 (20140413.2041)
 -->
<!-- Title: SpatialNormalization Pages: 1 -->
<svg width="423pt" height="427pt"
 viewBox="0.00 0.00 422.68 427.00" xmlns="http://www.w3.org/2000/svg" xmlns:xlink="http://www.w3.org/1999/xlink">
<g id="graph0" class="graph" transform="scale(1 1) rotate(0) translate(4 423)">
<title>SpatialNormalization</title>
<polygon fill="white" stroke="none" points="-4,4 -4,-423 418.678,-423 418.678,4 -4,4"/>
<text text-anchor="middle" x="207.339" y="-7.8" font-family="Times,serif" font-size="14.00">SpatialNormalization</text>
<!-- SpatialNormalization_inputnode -->
<g id="node1" class="node"><title>SpatialNormalization_inputnode</title>
<ellipse fill="none" stroke="black" cx="231.54" cy="-401" rx="88.2844" ry="18"/>
<text text-anchor="middle" x="231.54" y="-397.3" font-family="Times,serif" font-size="14.00">inputnode (interfaces)</text>
</g>
<!-- SpatialNormalization_SharpenEPI -->
<g id="node2" class="node"><title>SpatialNormalization_SharpenEPI</title>
<ellipse fill="none" stroke="black" cx="108.54" cy="-329" rx="94.7833" ry="18"/>
<text text-anchor="middle" x="108.54" y="-325.3" font-family="Times,serif" font-size="14.00">SharpenEPI (interfaces)</text>
</g>
<!-- SpatialNormalization_inputnode&#45;&gt;SpatialNormalization_SharpenEPI -->
<g id="edge2" class="edge"><title>SpatialNormalization_inputnode&#45;&gt;SpatialNormalization_SharpenEPI</title>
<path fill="none" stroke="black" d="M203.322,-383.941C186.255,-374.228 164.296,-361.731 145.812,-351.211"/>
<polygon fill="black" stroke="black" points="147.476,-348.131 137.054,-346.227 144.014,-354.215 147.476,-348.131"/>
</g>
<!-- SpatialNormalization_EPIApplyMask -->
<g id="node3" class="node"><title>SpatialNormalization_EPIApplyMask</title>
<ellipse fill="none" stroke="black" cx="108.54" cy="-257" rx="108.581" ry="18"/>
<text text-anchor="middle" x="108.54" y="-253.3" font-family="Times,serif" font-size="14.00">EPIApplyMask (interfaces)</text>
</g>
<!-- SpatialNormalization_inputnode&#45;&gt;SpatialNormalization_EPIApplyMask -->
<g id="edge3" class="edge"><title>SpatialNormalization_inputnode&#45;&gt;SpatialNormalization_EPIApplyMask</title>
<path fill="none" stroke="black" d="M232.075,-382.796C231.8,-363.424 228.611,-331.926 212.54,-311 201.189,-296.219 184.571,-285.217 167.935,-277.188"/>
<polygon fill="black" stroke="black" points="169.279,-273.955 158.725,-273.028 166.398,-280.334 169.279,-273.955"/>
</g>
<!-- SpatialNormalization_ResampleSegmentation -->
<g id="node5" class="node"><title>SpatialNormalization_ResampleSegmentation</title>
<ellipse fill="none" stroke="black" cx="277.54" cy="-113" rx="137.276" ry="18"/>
<text text-anchor="middle" x="277.54" y="-109.3" font-family="Times,serif" font-size="14.00">ResampleSegmentation (interfaces)</text>
</g>
<!-- SpatialNormalization_inputnode&#45;&gt;SpatialNormalization_ResampleSegmentation -->
<g id="edge1" class="edge"><title>SpatialNormalization_inputnode&#45;&gt;SpatialNormalization_ResampleSegmentation</title>
<path fill="none" stroke="black" d="M234.28,-382.966C241.964,-335.192 263.769,-199.623 273.155,-141.266"/>
<polygon fill="black" stroke="black" points="276.624,-141.735 274.757,-131.306 269.713,-140.624 276.624,-141.735"/>
</g>
<!-- SpatialNormalization_SharpenEPI&#45;&gt;SpatialNormalization_EPIApplyMask -->
<g id="edge4" class="edge"><title>SpatialNormalization_SharpenEPI&#45;&gt;SpatialNormalization_EPIApplyMask</title>
<path fill="none" stroke="black" d="M108.54,-310.697C108.54,-302.983 108.54,-293.712 108.54,-285.112"/>
<polygon fill="black" stroke="black" points="112.04,-285.104 108.54,-275.104 105.04,-285.104 112.04,-285.104"/>
</g>
<!-- SpatialNormalization_EPI2MNI -->
<g id="node4" class="node"><title>SpatialNormalization_EPI2MNI</title>
<ellipse fill="none" stroke="black" cx="105.54" cy="-185" rx="94.4839" ry="18"/>
<text text-anchor="middle" x="105.54" y="-181.3" font-family="Times,serif" font-size="14.00">EPI2MNI (registration)</text>
</g>
<!-- SpatialNormalization_EPIApplyMask&#45;&gt;SpatialNormalization_EPI2MNI -->
<g id="edge5" class="edge"><title>SpatialNormalization_EPIApplyMask&#45;&gt;SpatialNormalization_EPI2MNI</title>
<path fill="none" stroke="black" d="M107.799,-238.697C107.468,-230.983 107.071,-221.712 106.702,-213.112"/>
<polygon fill="black" stroke="black" points="110.198,-212.945 106.273,-203.104 103.205,-213.245 110.198,-212.945"/>
</g>
<!-- SpatialNormalization_EPI2MNI&#45;&gt;SpatialNormalization_ResampleSegmentation -->
<g id="edge6" class="edge"><title>SpatialNormalization_EPI2MNI&#45;&gt;SpatialNormalization_ResampleSegmentation</title>
<path fill="none" stroke="black" d="M143.713,-168.465C168.482,-158.384 201.011,-145.146 227.797,-134.244"/>
<polygon fill="black" stroke="black" points="229.437,-137.356 237.38,-130.344 226.799,-130.872 229.437,-137.356"/>
</g>
<!-- SpatialNormalization_outputnode -->
<g id="node6" class="node"><title>SpatialNormalization_outputnode</title>
<ellipse fill="none" stroke="black" cx="103.54" cy="-41" rx="92.8835" ry="18"/>
<text text-anchor="middle" x="103.54" y="-37.3" font-family="Times,serif" font-size="14.00">outputnode (interfaces)</text>
</g>
<!-- SpatialNormalization_EPI2MNI&#45;&gt;SpatialNormalization_outputnode -->
<g id="edge7" class="edge"><title>SpatialNormalization_EPI2MNI&#45;&gt;SpatialNormalization_outputnode</title>
<path fill="none" stroke="black" d="M100.715,-166.871C97.8154,-142.67 96.8977,-98.2108 98.4672,-69.3932"/>
<polygon fill="black" stroke="black" points="101.975,-69.412 99.1916,-59.1893 94.9922,-68.9163 101.975,-69.412"/>
</g>
<!-- SpatialNormalization_EPI2MNI&#45;&gt;SpatialNormalization_outputnode -->
<g id="edge8" class="edge"><title>SpatialNormalization_EPI2MNI&#45;&gt;SpatialNormalization_outputnode</title>
<path fill="none" stroke="black" d="M109.884,-166.871C112.101,-142.67 111.766,-98.2108 109.385,-69.3932"/>
<polygon fill="black" stroke="black" points="112.843,-68.7951 108.373,-59.1893 105.877,-69.4859 112.843,-68.7951"/>
</g>
<!-- SpatialNormalization_ResampleSegmentation&#45;&gt;SpatialNormalization_outputnode -->
<g id="edge9" class="edge"><title>SpatialNormalization_ResampleSegmentation&#45;&gt;SpatialNormalization_outputnode</title>
<path fill="none" stroke="black" d="M237.184,-95.7646C211.612,-85.477 178.407,-72.1186 151.492,-61.291"/>
<polygon fill="black" stroke="black" points="152.471,-57.912 141.887,-57.4268 149.858,-64.4062 152.471,-57.912"/>
</g>
</g>
</svg>
