<?xml version="1.0" encoding="UTF-8" standalone="no"?>
<!DOCTYPE svg PUBLIC "-//W3C//DTD SVG 1.1//EN"
 "http://www.w3.org/Graphics/SVG/1.1/DTD/svg11.dtd">
<!-- Generated by graphviz version 2.38.0 (20140413.2041)
 -->
<!-- Title: fMRI_HMC_afni Pages: 1 -->
<svg width="377pt" height="427pt"
 viewBox="0.00 0.00 376.53 427.00" xmlns="http://www.w3.org/2000/svg" xmlns:xlink="http://www.w3.org/1999/xlink">
<g id="graph0" class="graph" transform="scale(1 1) rotate(0) translate(4 423)">
<title>fMRI_HMC_afni</title>
<polygon fill="white" stroke="none" points="-4,4 -4,-423 372.533,-423 372.533,4 -4,4"/>
<text text-anchor="middle" x="184.267" y="-7.8" font-family="Times,serif" font-size="14.00">fMRI_HMC_afni</text>
<!-- fMRI_HMC_afni_inputnode -->
<g id="node1" class="node"><title>fMRI_HMC_afni_inputnode</title>
<ellipse fill="none" stroke="black" cx="217.792" cy="-401" rx="88.2844" ry="18"/>
<text text-anchor="middle" x="217.792" y="-397.3" font-family="Times,serif" font-size="14.00">inputnode (interfaces)</text>
</g>
<!-- fMRI_HMC_afni_drop_trs -->
<g id="node2" class="node"><title>fMRI_HMC_afni_drop_trs</title>
<ellipse fill="none" stroke="black" cx="162.792" cy="-329" rx="82.5854" ry="18"/>
<text text-anchor="middle" x="162.792" y="-325.3" font-family="Times,serif" font-size="14.00">drop_trs (interfaces)</text>
</g>
<!-- fMRI_HMC_afni_inputnode&#45;&gt;fMRI_HMC_afni_drop_trs -->
<g id="edge1" class="edge"><title>fMRI_HMC_afni_inputnode&#45;&gt;fMRI_HMC_afni_drop_trs</title>
<path fill="none" stroke="black" d="M204.478,-383.055C197.79,-374.543 189.56,-364.068 182.185,-354.681"/>
<polygon fill="black" stroke="black" points="184.914,-352.49 175.984,-346.789 179.41,-356.815 184.914,-352.49"/>
</g>
<!-- fMRI_HMC_afni_ComputeFD -->
<g id="node5" class="node"><title>fMRI_HMC_afni_ComputeFD</title>
<ellipse fill="none" stroke="black" cx="267.792" cy="-113" rx="100.983" ry="18"/>
<text text-anchor="middle" x="267.792" y="-109.3" font-family="Times,serif" font-size="14.00">ComputeFD (algorithms)</text>
</g>
<!-- fMRI_HMC_afni_inputnode&#45;&gt;fMRI_HMC_afni_ComputeFD -->
<g id="edge2" class="edge"><title>fMRI_HMC_afni_inputnode&#45;&gt;fMRI_HMC_afni_ComputeFD</title>
<path fill="none" stroke="black" d="M233.155,-383.218C241.141,-373.413 250.176,-360.365 254.792,-347 279.294,-276.069 275.145,-185.802 270.979,-141.314"/>
<polygon fill="black" stroke="black" points="274.453,-140.876 269.964,-131.279 267.488,-141.581 274.453,-140.876"/>
</g>
<!-- fMRI_HMC_afni_gen_ref -->
<g id="node3" class="node"><title>fMRI_HMC_afni_gen_ref</title>
<ellipse fill="none" stroke="black" cx="85.7924" cy="-257" rx="85.5853" ry="18"/>
<text text-anchor="middle" x="85.7924" y="-253.3" font-family="Times,serif" font-size="14.00">gen_ref (registration)</text>
</g>
<!-- fMRI_HMC_afni_drop_trs&#45;&gt;fMRI_HMC_afni_gen_ref -->
<g id="edge3" class="edge"><title>fMRI_HMC_afni_drop_trs&#45;&gt;fMRI_HMC_afni_gen_ref</title>
<path fill="none" stroke="black" d="M144.544,-311.411C134.739,-302.497 122.483,-291.355 111.706,-281.558"/>
<polygon fill="black" stroke="black" points="113.93,-278.849 104.176,-274.713 109.221,-284.029 113.93,-278.849"/>
</g>
<!-- fMRI_HMC_afni_motion_correct -->
<g id="node4" class="node"><title>fMRI_HMC_afni_motion_correct</title>
<ellipse fill="none" stroke="black" cx="138.792" cy="-185" rx="107.482" ry="18"/>
<text text-anchor="middle" x="138.792" y="-181.3" font-family="Times,serif" font-size="14.00">motion_correct (interfaces)</text>
</g>
<!-- fMRI_HMC_afni_drop_trs&#45;&gt;fMRI_HMC_afni_motion_correct -->
<g id="edge4" class="edge"><title>fMRI_HMC_afni_drop_trs&#45;&gt;fMRI_HMC_afni_motion_correct</title>
<path fill="none" stroke="black" d="M171.538,-310.905C179.634,-292.713 189.242,-263.267 180.792,-239 177.165,-228.581 170.541,-218.67 163.61,-210.298"/>
<polygon fill="black" stroke="black" points="166.205,-207.948 156.958,-202.776 160.961,-212.586 166.205,-207.948"/>
</g>
<!-- fMRI_HMC_afni_gen_ref&#45;&gt;fMRI_HMC_afni_motion_correct -->
<g id="edge5" class="edge"><title>fMRI_HMC_afni_gen_ref&#45;&gt;fMRI_HMC_afni_motion_correct</title>
<path fill="none" stroke="black" d="M98.6222,-239.055C104.908,-230.753 112.608,-220.584 119.578,-211.378"/>
<polygon fill="black" stroke="black" points="122.467,-213.361 125.713,-203.275 116.886,-209.135 122.467,-213.361"/>
</g>
<!-- fMRI_HMC_afni_motion_correct&#45;&gt;fMRI_HMC_afni_ComputeFD -->
<g id="edge7" class="edge"><title>fMRI_HMC_afni_motion_correct&#45;&gt;fMRI_HMC_afni_ComputeFD</title>
<path fill="none" stroke="black" d="M169.037,-167.588C186.909,-157.89 209.725,-145.51 228.922,-135.092"/>
<polygon fill="black" stroke="black" points="230.617,-138.155 237.737,-130.309 227.278,-132.002 230.617,-138.155"/>
</g>
<!-- fMRI_HMC_afni_outputnode -->
<g id="node6" class="node"><title>fMRI_HMC_afni_outputnode</title>
<ellipse fill="none" stroke="black" cx="202.792" cy="-41" rx="92.8835" ry="18"/>
<text text-anchor="middle" x="202.792" y="-37.3" font-family="Times,serif" font-size="14.00">outputnode (interfaces)</text>
</g>
<!-- fMRI_HMC_afni_motion_correct&#45;&gt;fMRI_HMC_afni_outputnode -->
<g id="edge6" class="edge"><title>fMRI_HMC_afni_motion_correct&#45;&gt;fMRI_HMC_afni_outputnode</title>
<path fill="none" stroke="black" d="M139.959,-166.787C141.775,-148.237 146.356,-118.251 157.792,-95 162.799,-84.822 170.193,-74.9749 177.548,-66.5872"/>
<polygon fill="black" stroke="black" points="180.308,-68.7564 184.507,-59.0293 175.159,-64.0145 180.308,-68.7564"/>
</g>
<!-- fMRI_HMC_afni_ComputeFD&#45;&gt;fMRI_HMC_afni_outputnode -->
<g id="edge8" class="edge"><title>fMRI_HMC_afni_ComputeFD&#45;&gt;fMRI_HMC_afni_outputnode</title>
<path fill="none" stroke="black" d="M252.058,-95.055C244.074,-86.4567 234.231,-75.8566 225.447,-66.3974"/>
<polygon fill="black" stroke="black" points="227.752,-63.7354 218.382,-58.789 222.622,-68.4986 227.752,-63.7354"/>
</g>
</g>
</svg>
