<?xml version="1.0" encoding="UTF-8" standalone="no"?>
<!DOCTYPE svg PUBLIC "-//W3C//DTD SVG 1.1//EN"
 "http://www.w3.org/Graphics/SVG/1.1/DTD/svg11.dtd">
<!-- Generated by graphviz version 2.38.0 (20140413.2041)
 -->
<!-- Title: ReportsWorkflow Pages: 1 -->
<svg width="760pt" height="499pt"
 viewBox="0.00 0.00 759.83 499.00" xmlns="http://www.w3.org/2000/svg" xmlns:xlink="http://www.w3.org/1999/xlink">
<g id="graph0" class="graph" transform="scale(1 1) rotate(0) translate(4 495)">
<title>ReportsWorkflow</title>
<polygon fill="white" stroke="none" points="-4,4 -4,-495 755.829,-495 755.829,4 -4,4"/>
<text text-anchor="middle" x="375.914" y="-7.8" font-family="Times,serif" font-size="14.00">ReportsWorkflow</text>
<!-- ReportsWorkflow_inputnode -->
<g id="node1" class="node"><title>ReportsWorkflow_inputnode</title>
<ellipse fill="none" stroke="black" cx="344.288" cy="-473" rx="88.2844" ry="18"/>
<text text-anchor="middle" x="344.288" y="-469.3" font-family="Times,serif" font-size="14.00">inputnode (interfaces)</text>
</g>
<!-- ReportsWorkflow_SpikesMask -->
<g id="node2" class="node"><title>ReportsWorkflow_SpikesMask</title>
<ellipse fill="none" stroke="black" cx="127.288" cy="-401" rx="96.6831" ry="18"/>
<text text-anchor="middle" x="127.288" y="-397.3" font-family="Times,serif" font-size="14.00">SpikesMask (interfaces)</text>
</g>
<!-- ReportsWorkflow_inputnode&#45;&gt;ReportsWorkflow_SpikesMask -->
<g id="edge2" class="edge"><title>ReportsWorkflow_inputnode&#45;&gt;ReportsWorkflow_SpikesMask</title>
<path fill="none" stroke="black" d="M299.326,-457.496C265.624,-446.624 219.295,-431.679 183.204,-420.037"/>
<polygon fill="black" stroke="black" points="183.906,-416.586 173.315,-416.847 181.757,-423.248 183.906,-416.586"/>
</g>
<!-- ReportsWorkflow_SpikesFinderBgMask -->
<g id="node3" class="node"><title>ReportsWorkflow_SpikesFinderBgMask</title>
<ellipse fill="none" stroke="black" cx="131.288" cy="-329" rx="131.077" ry="18"/>
<text text-anchor="middle" x="131.288" y="-325.3" font-family="Times,serif" font-size="14.00">SpikesFinderBgMask (functional)</text>
</g>
<!-- ReportsWorkflow_inputnode&#45;&gt;ReportsWorkflow_SpikesFinderBgMask -->
<g id="edge1" class="edge"><title>ReportsWorkflow_inputnode&#45;&gt;ReportsWorkflow_SpikesFinderBgMask</title>
<path fill="none" stroke="black" d="M322.699,-455.481C309.256,-445.119 291.657,-431.416 276.288,-419 256.9,-403.336 254.025,-396.828 233.288,-383 215.474,-371.121 194.674,-359.889 176.521,-350.848"/>
<polygon fill="black" stroke="black" points="177.819,-347.587 167.299,-346.329 174.739,-353.873 177.819,-347.587"/>
</g>
<!-- ReportsWorkflow_BigPlot -->
<g id="node4" class="node"><title>ReportsWorkflow_BigPlot</title>
<ellipse fill="none" stroke="black" cx="344.288" cy="-257" rx="79.8859" ry="18"/>
<text text-anchor="middle" x="344.288" y="-253.3" font-family="Times,serif" font-size="14.00">BigPlot (interfaces)</text>
</g>
<!-- ReportsWorkflow_inputnode&#45;&gt;ReportsWorkflow_BigPlot -->
<g id="edge3" class="edge"><title>ReportsWorkflow_inputnode&#45;&gt;ReportsWorkflow_BigPlot</title>
<path fill="none" stroke="black" d="M321.439,-455.563C299.524,-418.452 298.016,-327.953 316.916,-283.496"/>
<polygon fill="black" stroke="black" points="320.075,-285.004 321.405,-274.493 313.81,-281.88 320.075,-285.004"/>
</g>
<!-- ReportsWorkflow_inputnode&#45;&gt;ReportsWorkflow_BigPlot -->
<g id="edge4" class="edge"><title>ReportsWorkflow_inputnode&#45;&gt;ReportsWorkflow_BigPlot</title>
<path fill="none" stroke="black" d="M328.916,-455.208C314.523,-418.095 313.492,-328.858 325.822,-284.274"/>
<polygon fill="black" stroke="black" points="329.167,-285.307 328.947,-274.714 322.513,-283.132 329.167,-285.307"/>
</g>
<!-- ReportsWorkflow_inputnode&#45;&gt;ReportsWorkflow_BigPlot -->
<g id="edge5" class="edge"><title>ReportsWorkflow_inputnode&#45;&gt;ReportsWorkflow_BigPlot</title>
<path fill="none" stroke="black" d="M336.533,-454.849C329.444,-417.74 328.916,-329.747 334.949,-285.054"/>
<polygon fill="black" stroke="black" points="338.444,-285.364 336.575,-274.935 331.532,-284.253 338.444,-285.364"/>
</g>
<!-- ReportsWorkflow_inputnode&#45;&gt;ReportsWorkflow_BigPlot -->
<g id="edge6" class="edge"><title>ReportsWorkflow_inputnode&#45;&gt;ReportsWorkflow_BigPlot</title>
<path fill="none" stroke="black" d="M344.288,-454.849C344.288,-417.832 344.288,-330.181 344.288,-285.386"/>
<polygon fill="black" stroke="black" points="347.788,-285.232 344.288,-275.232 340.788,-285.232 347.788,-285.232"/>
</g>
<!-- ReportsWorkflow_inputnode&#45;&gt;ReportsWorkflow_BigPlot -->
<g id="edge7" class="edge"><title>ReportsWorkflow_inputnode&#45;&gt;ReportsWorkflow_BigPlot</title>
<path fill="none" stroke="black" d="M352.043,-454.849C359.133,-417.74 359.661,-329.747 353.628,-285.054"/>
<polygon fill="black" stroke="black" points="357.044,-284.253 352.002,-274.935 350.133,-285.364 357.044,-284.253"/>
</g>
<!-- ReportsWorkflow_inputnode&#45;&gt;ReportsWorkflow_BigPlot -->
<g id="edge8" class="edge"><title>ReportsWorkflow_inputnode&#45;&gt;ReportsWorkflow_BigPlot</title>
<path fill="none" stroke="black" d="M359.66,-455.208C374.053,-418.095 375.085,-328.858 362.755,-284.274"/>
<polygon fill="black" stroke="black" points="366.064,-283.132 359.63,-274.714 359.41,-285.307 366.064,-283.132"/>
</g>
<!-- ReportsWorkflow_inputnode&#45;&gt;ReportsWorkflow_BigPlot -->
<g id="edge9" class="edge"><title>ReportsWorkflow_inputnode&#45;&gt;ReportsWorkflow_BigPlot</title>
<path fill="none" stroke="black" d="M367.138,-455.563C389.053,-418.452 390.56,-327.953 371.661,-283.496"/>
<polygon fill="black" stroke="black" points="374.766,-281.88 367.171,-274.493 368.502,-285.004 374.766,-281.88"/>
</g>
<!-- ReportsWorkflow_PlotMosaicMean -->
<g id="node5" class="node"><title>ReportsWorkflow_PlotMosaicMean</title>
<ellipse fill="none" stroke="black" cx="517.288" cy="-329" rx="90.9839" ry="18"/>
<text text-anchor="middle" x="517.288" y="-325.3" font-family="Times,serif" font-size="14.00">PlotMosaicMean (viz)</text>
</g>
<!-- ReportsWorkflow_inputnode&#45;&gt;ReportsWorkflow_PlotMosaicMean -->
<g id="edge11" class="edge"><title>ReportsWorkflow_inputnode&#45;&gt;ReportsWorkflow_PlotMosaicMean</title>
<path fill="none" stroke="black" d="M365.904,-455.514C379.358,-445.165 396.958,-431.463 412.288,-419 439.253,-397.079 469.465,-371.344 490.534,-353.201"/>
<polygon fill="black" stroke="black" points="492.85,-355.826 498.135,-346.643 488.277,-350.525 492.85,-355.826"/>
</g>
<!-- ReportsWorkflow_PlotMosaicSD -->
<g id="node6" class="node"><title>ReportsWorkflow_PlotMosaicSD</title>
<ellipse fill="none" stroke="black" cx="595.288" cy="-257" rx="81.4863" ry="18"/>
<text text-anchor="middle" x="595.288" y="-253.3" font-family="Times,serif" font-size="14.00">PlotMosaicSD (viz)</text>
</g>
<!-- ReportsWorkflow_inputnode&#45;&gt;ReportsWorkflow_PlotMosaicSD -->
<g id="edge12" class="edge"><title>ReportsWorkflow_inputnode&#45;&gt;ReportsWorkflow_PlotMosaicSD</title>
<path fill="none" stroke="black" d="M413.5,-461.672C478.639,-447.878 572.653,-416.529 617.288,-347 629.499,-327.979 621.393,-302.675 611.753,-283.91"/>
<polygon fill="black" stroke="black" points="614.735,-282.071 606.826,-275.022 608.613,-285.465 614.735,-282.071"/>
</g>
<!-- ReportsWorkflow_GenerateReport -->
<g id="node8" class="node"><title>ReportsWorkflow_GenerateReport</title>
<ellipse fill="none" stroke="black" cx="643.288" cy="-113" rx="108.581" ry="18"/>
<text text-anchor="middle" x="643.288" y="-109.3" font-family="Times,serif" font-size="14.00">GenerateReport (interfaces)</text>
</g>
<!-- ReportsWorkflow_inputnode&#45;&gt;ReportsWorkflow_GenerateReport -->
<g id="edge10" class="edge"><title>ReportsWorkflow_inputnode&#45;&gt;ReportsWorkflow_GenerateReport</title>
<path fill="none" stroke="black" d="M415.831,-462.417C462.113,-454.548 522.903,-441.025 573.288,-419 637.784,-390.807 704.288,-400.388 704.288,-330 704.288,-330 704.288,-330 704.288,-256 704.288,-212.368 679.674,-166.87 661.717,-139.482"/>
<polygon fill="black" stroke="black" points="664.428,-137.242 655.928,-130.918 658.628,-141.162 664.428,-137.242"/>
</g>
<!-- ReportsWorkflow_SpikesMask&#45;&gt;ReportsWorkflow_SpikesFinderBgMask -->
<g id="edge13" class="edge"><title>ReportsWorkflow_SpikesMask&#45;&gt;ReportsWorkflow_SpikesFinderBgMask</title>
<path fill="none" stroke="black" d="M128.277,-382.697C128.718,-374.983 129.248,-365.712 129.739,-357.112"/>
<polygon fill="black" stroke="black" points="133.235,-357.288 130.311,-347.104 126.246,-356.888 133.235,-357.288"/>
</g>
<!-- ReportsWorkflow_SpikesFinderBgMask&#45;&gt;ReportsWorkflow_BigPlot -->
<g id="edge14" class="edge"><title>ReportsWorkflow_SpikesFinderBgMask&#45;&gt;ReportsWorkflow_BigPlot</title>
<path fill="none" stroke="black" d="M179.355,-312.203C212.635,-301.266 256.939,-286.706 291.249,-275.431"/>
<polygon fill="black" stroke="black" points="292.69,-278.641 301.097,-272.194 290.505,-271.991 292.69,-278.641"/>
</g>
<!-- ReportsWorkflow_MergePlots -->
<g id="node7" class="node"><title>ReportsWorkflow_MergePlots</title>
<ellipse fill="none" stroke="black" cx="534.288" cy="-185" rx="94.4839" ry="18"/>
<text text-anchor="middle" x="534.288" y="-181.3" font-family="Times,serif" font-size="14.00">MergePlots (interfaces)</text>
</g>
<!-- ReportsWorkflow_BigPlot&#45;&gt;ReportsWorkflow_MergePlots -->
<g id="edge15" class="edge"><title>ReportsWorkflow_BigPlot&#45;&gt;ReportsWorkflow_MergePlots</title>
<path fill="none" stroke="black" d="M384.119,-241.326C413.013,-230.68 452.327,-216.196 483.482,-204.718"/>
<polygon fill="black" stroke="black" points="484.695,-208.001 492.868,-201.26 482.275,-201.433 484.695,-208.001"/>
</g>
<!-- ReportsWorkflow_PlotMosaicMean&#45;&gt;ReportsWorkflow_MergePlots -->
<g id="edge16" class="edge"><title>ReportsWorkflow_PlotMosaicMean&#45;&gt;ReportsWorkflow_MergePlots</title>
<path fill="none" stroke="black" d="M511.092,-310.711C505.499,-292.611 499.031,-263.47 505.288,-239 507.667,-229.697 512.053,-220.27 516.707,-211.997"/>
<polygon fill="black" stroke="black" points="519.832,-213.59 521.981,-203.216 513.832,-209.986 519.832,-213.59"/>
</g>
<!-- ReportsWorkflow_PlotMosaicSD&#45;&gt;ReportsWorkflow_MergePlots -->
<g id="edge17" class="edge"><title>ReportsWorkflow_PlotMosaicSD&#45;&gt;ReportsWorkflow_MergePlots</title>
<path fill="none" stroke="black" d="M580.522,-239.055C573.029,-230.457 563.792,-219.857 555.549,-210.397"/>
<polygon fill="black" stroke="black" points="558.127,-208.029 548.919,-202.789 552.85,-212.628 558.127,-208.029"/>
</g>
<!-- ReportsWorkflow_MergePlots&#45;&gt;ReportsWorkflow_GenerateReport -->
<g id="edge18" class="edge"><title>ReportsWorkflow_MergePlots&#45;&gt;ReportsWorkflow_GenerateReport</title>
<path fill="none" stroke="black" d="M559.844,-167.588C574.497,-158.178 593.084,-146.242 608.994,-136.024"/>
<polygon fill="black" stroke="black" points="610.992,-138.9 617.515,-130.552 607.21,-133.01 610.992,-138.9"/>
</g>
<!-- ReportsWorkflow_dsplots -->
<g id="node9" class="node"><title>ReportsWorkflow_dsplots</title>
<ellipse fill="none" stroke="black" cx="643.288" cy="-41" rx="77.9862" ry="18"/>
<text text-anchor="middle" x="643.288" y="-37.3" font-family="Times,serif" font-size="14.00">dsplots (interfaces)</text>
</g>
<!-- ReportsWorkflow_GenerateReport&#45;&gt;ReportsWorkflow_dsplots -->
<g id="edge19" class="edge"><title>ReportsWorkflow_GenerateReport&#45;&gt;ReportsWorkflow_dsplots</title>
<path fill="none" stroke="black" d="M643.288,-94.6966C643.288,-86.9827 643.288,-77.7125 643.288,-69.1124"/>
<polygon fill="black" stroke="black" points="646.788,-69.1043 643.288,-59.1043 639.788,-69.1044 646.788,-69.1043"/>
</g>
</g>
</svg>
