<?xml version="1.0" encoding="UTF-8" standalone="no"?>
<!DOCTYPE svg PUBLIC "-//W3C//DTD SVG 1.1//EN"
 "http://www.w3.org/Graphics/SVG/1.1/DTD/svg11.dtd">
<!-- Generated by graphviz version 2.38.0 (20140413.2041)
 -->
<!-- Title: HeadMaskWorkflow Pages: 1 -->
<svg width="194pt" height="211pt"
 viewBox="0.00 0.00 193.88 211.00" xmlns="http://www.w3.org/2000/svg" xmlns:xlink="http://www.w3.org/1999/xlink">
<g id="graph0" class="graph" transform="scale(1 1) rotate(0) translate(4 207)">
<title>HeadMaskWorkflow</title>
<polygon fill="white" stroke="none" points="-4,4 -4,-207 189.884,-207 189.884,4 -4,4"/>
<text text-anchor="middle" x="92.9418" y="-7.8" font-family="Times,serif" font-size="14.00">HeadMaskWorkflow</text>
<!-- HeadMaskWorkflow_inputnode -->
<g id="node1" class="node"><title>HeadMaskWorkflow_inputnode</title>
<ellipse fill="none" stroke="black" cx="92.9418" cy="-185" rx="88.2844" ry="18"/>
<text text-anchor="middle" x="92.9418" y="-181.3" font-family="Times,serif" font-size="14.00">inputnode (interfaces)</text>
</g>
<!-- HeadMaskWorkflow_fsl_bet -->
<g id="node2" class="node"><title>HeadMaskWorkflow_fsl_bet</title>
<ellipse fill="none" stroke="black" cx="92.9418" cy="-113" rx="77.1866" ry="18"/>
<text text-anchor="middle" x="92.9418" y="-109.3" font-family="Times,serif" font-size="14.00">fsl_bet (interfaces)</text>
</g>
<!-- HeadMaskWorkflow_inputnode&#45;&gt;HeadMaskWorkflow_fsl_bet -->
<g id="edge1" class="edge"><title>HeadMaskWorkflow_inputnode&#45;&gt;HeadMaskWorkflow_fsl_bet</title>
<path fill="none" stroke="black" d="M92.9418,-166.697C92.9418,-158.983 92.9418,-149.712 92.9418,-141.112"/>
<polygon fill="black" stroke="black" points="96.4419,-141.104 92.9418,-131.104 89.4419,-141.104 96.4419,-141.104"/>
</g>
<!-- HeadMaskWorkflow_outputnode -->
<g id="node3" class="node"><title>HeadMaskWorkflow_outputnode</title>
<ellipse fill="none" stroke="black" cx="92.9418" cy="-41" rx="92.8835" ry="18"/>
<text text-anchor="middle" x="92.9418" y="-37.3" font-family="Times,serif" font-size="14.00">outputnode (interfaces)</text>
</g>
<!-- HeadMaskWorkflow_fsl_bet&#45;&gt;HeadMaskWorkflow_outputnode -->
<g id="edge2" class="edge"><title>HeadMaskWorkflow_fsl_bet&#45;&gt;HeadMaskWorkflow_outputnode</title>
<path fill="none" stroke="black" d="M92.9418,-94.6966C92.9418,-86.9827 92.9418,-77.7125 92.9418,-69.1124"/>
<polygon fill="black" stroke="black" points="96.4419,-69.1043 92.9418,-59.1043 89.4419,-69.1044 96.4419,-69.1043"/>
</g>
</g>
</svg>
