<?xml version="1.0" encoding="UTF-8" standalone="no"?>
<!DOCTYPE svg PUBLIC "-//W3C//DTD SVG 1.1//EN"
 "http://www.w3.org/Graphics/SVG/1.1/DTD/svg11.dtd">
<!-- Generated by graphviz version 2.38.0 (20140413.2041)
 -->
<!-- Title: ComputeIQMs Pages: 1 -->
<svg width="1343pt" height="355pt"
 viewBox="0.00 0.00 1342.88 355.00" xmlns="http://www.w3.org/2000/svg" xmlns:xlink="http://www.w3.org/1999/xlink">
<g id="graph0" class="graph" transform="scale(1 1) rotate(0) translate(4 351)">
<title>ComputeIQMs</title>
<polygon fill="white" stroke="none" points="-4,4 -4,-351 1338.88,-351 1338.88,4 -4,4"/>
<text text-anchor="middle" x="667.441" y="-7.8" font-family="Times,serif" font-size="14.00">ComputeIQMs</text>
<!-- ComputeIQMs_inputnode -->
<g id="node1" class="node"><title>ComputeIQMs_inputnode</title>
<ellipse fill="none" stroke="black" cx="815.293" cy="-329" rx="88.2844" ry="18"/>
<text text-anchor="middle" x="815.293" y="-325.3" font-family="Times,serif" font-size="14.00">inputnode (interfaces)</text>
</g>
<!-- ComputeIQMs_ComputeDVARS -->
<g id="node2" class="node"><title>ComputeIQMs_ComputeDVARS</title>
<ellipse fill="none" stroke="black" cx="1215.29" cy="-257" rx="119.679" ry="18"/>
<text text-anchor="middle" x="1215.29" y="-253.3" font-family="Times,serif" font-size="14.00">ComputeDVARS (algorithms)</text>
</g>
<!-- ComputeIQMs_inputnode&#45;&gt;ComputeIQMs_ComputeDVARS -->
<g id="edge1" class="edge"><title>ComputeIQMs_inputnode&#45;&gt;ComputeIQMs_ComputeDVARS</title>
<path fill="none" stroke="black" d="M877.491,-316.205C944.498,-304.141 1051.55,-285.385 1127.19,-272.441"/>
<polygon fill="black" stroke="black" points="1127.92,-275.868 1137.18,-270.733 1126.74,-268.968 1127.92,-275.868"/>
</g>
<!-- ComputeIQMs_inputnode&#45;&gt;ComputeIQMs_ComputeDVARS -->
<g id="edge2" class="edge"><title>ComputeIQMs_inputnode&#45;&gt;ComputeIQMs_ComputeDVARS</title>
<path fill="none" stroke="black" d="M882.403,-317.139C951.602,-305.384 1059.46,-286.547 1133.57,-273.297"/>
<polygon fill="black" stroke="black" points="1134.57,-276.673 1143.8,-271.466 1133.34,-269.783 1134.57,-276.673"/>
</g>
<!-- ComputeIQMs_smoothness -->
<g id="node3" class="node"><title>ComputeIQMs_smoothness</title>
<ellipse fill="none" stroke="black" cx="983.293" cy="-257" rx="94.7833" ry="18"/>
<text text-anchor="middle" x="983.293" y="-253.3" font-family="Times,serif" font-size="14.00">smoothness (interfaces)</text>
</g>
<!-- ComputeIQMs_inputnode&#45;&gt;ComputeIQMs_smoothness -->
<g id="edge9" class="edge"><title>ComputeIQMs_inputnode&#45;&gt;ComputeIQMs_smoothness</title>
<path fill="none" stroke="black" d="M847.654,-312.116C871.479,-301.688 904.238,-287.994 931.637,-276.991"/>
<polygon fill="black" stroke="black" points="933.091,-280.179 941.081,-273.221 930.496,-273.677 933.091,-280.179"/>
</g>
<!-- ComputeIQMs_inputnode&#45;&gt;ComputeIQMs_smoothness -->
<g id="edge10" class="edge"><title>ComputeIQMs_inputnode&#45;&gt;ComputeIQMs_smoothness</title>
<path fill="none" stroke="black" d="M856.99,-312.983C882.699,-302.795 915.475,-289.211 941.243,-278.093"/>
<polygon fill="black" stroke="black" points="942.968,-281.16 950.746,-273.966 940.179,-274.739 942.968,-281.16"/>
</g>
<!-- ComputeIQMs_measures -->
<g id="node4" class="node"><title>ComputeIQMs_measures</title>
<ellipse fill="none" stroke="black" cx="815.293" cy="-185" rx="87.9851" ry="18"/>
<text text-anchor="middle" x="815.293" y="-181.3" font-family="Times,serif" font-size="14.00">measures (functional)</text>
</g>
<!-- ComputeIQMs_inputnode&#45;&gt;ComputeIQMs_measures -->
<g id="edge3" class="edge"><title>ComputeIQMs_inputnode&#45;&gt;ComputeIQMs_measures</title>
<path fill="none" stroke="black" d="M792.671,-311.433C779.381,-286.957 777.995,-240.912 788.512,-211.936"/>
<polygon fill="black" stroke="black" points="791.86,-213.021 792.729,-202.462 785.465,-210.174 791.86,-213.021"/>
</g>
<!-- ComputeIQMs_inputnode&#45;&gt;ComputeIQMs_measures -->
<g id="edge4" class="edge"><title>ComputeIQMs_inputnode&#45;&gt;ComputeIQMs_measures</title>
<path fill="none" stroke="black" d="M801.629,-311.153C793.806,-286.813 792.952,-241.568 799.068,-212.665"/>
<polygon fill="black" stroke="black" points="802.497,-213.385 801.636,-202.825 795.724,-211.617 802.497,-213.385"/>
</g>
<!-- ComputeIQMs_inputnode&#45;&gt;ComputeIQMs_measures -->
<g id="edge5" class="edge"><title>ComputeIQMs_inputnode&#45;&gt;ComputeIQMs_measures</title>
<path fill="none" stroke="black" d="M810.708,-310.871C808.15,-286.67 807.859,-242.211 809.834,-213.393"/>
<polygon fill="black" stroke="black" points="813.342,-213.45 810.702,-203.189 806.367,-212.857 813.342,-213.45"/>
</g>
<!-- ComputeIQMs_inputnode&#45;&gt;ComputeIQMs_measures -->
<g id="edge6" class="edge"><title>ComputeIQMs_inputnode&#45;&gt;ComputeIQMs_measures</title>
<path fill="none" stroke="black" d="M819.877,-310.871C822.436,-286.67 822.727,-242.211 820.752,-213.393"/>
<polygon fill="black" stroke="black" points="824.219,-212.857 819.884,-203.189 817.244,-213.45 824.219,-212.857"/>
</g>
<!-- ComputeIQMs_inputnode&#45;&gt;ComputeIQMs_measures -->
<g id="edge7" class="edge"><title>ComputeIQMs_inputnode&#45;&gt;ComputeIQMs_measures</title>
<path fill="none" stroke="black" d="M828.957,-311.153C836.78,-286.813 837.634,-241.568 831.518,-212.665"/>
<polygon fill="black" stroke="black" points="834.862,-211.617 828.949,-202.825 828.089,-213.385 834.862,-211.617"/>
</g>
<!-- ComputeIQMs_inputnode&#45;&gt;ComputeIQMs_measures -->
<g id="edge8" class="edge"><title>ComputeIQMs_inputnode&#45;&gt;ComputeIQMs_measures</title>
<path fill="none" stroke="black" d="M837.915,-311.433C851.205,-286.957 852.591,-240.912 842.074,-211.936"/>
<polygon fill="black" stroke="black" points="845.121,-210.174 837.857,-202.462 838.726,-213.021 845.121,-210.174"/>
</g>
<!-- ComputeIQMs_quality -->
<g id="node5" class="node"><title>ComputeIQMs_quality</title>
<ellipse fill="none" stroke="black" cx="441.293" cy="-185" rx="77.1866" ry="18"/>
<text text-anchor="middle" x="441.293" y="-181.3" font-family="Times,serif" font-size="14.00">quality (interfaces)</text>
</g>
<!-- ComputeIQMs_inputnode&#45;&gt;ComputeIQMs_quality -->
<g id="edge11" class="edge"><title>ComputeIQMs_inputnode&#45;&gt;ComputeIQMs_quality</title>
<path fill="none" stroke="black" d="M730.845,-323.669C610.652,-316.628 402.172,-300.828 379.293,-275 360.64,-253.942 384.869,-227.154 408.285,-208.494"/>
<polygon fill="black" stroke="black" points="410.634,-211.104 416.462,-202.256 406.388,-205.539 410.634,-211.104"/>
</g>
<!-- ComputeIQMs_outliers -->
<g id="node6" class="node"><title>ComputeIQMs_outliers</title>
<ellipse fill="none" stroke="black" cx="79.293" cy="-185" rx="79.0865" ry="18"/>
<text text-anchor="middle" x="79.293" y="-181.3" font-family="Times,serif" font-size="14.00">outliers (interfaces)</text>
</g>
<!-- ComputeIQMs_inputnode&#45;&gt;ComputeIQMs_outliers -->
<g id="edge12" class="edge"><title>ComputeIQMs_inputnode&#45;&gt;ComputeIQMs_outliers</title>
<path fill="none" stroke="black" d="M726.456,-328.723C615.1,-327.707 419.595,-319.079 259.293,-275 203.436,-259.641 143.705,-228.801 108.865,-207.777"/>
<polygon fill="black" stroke="black" points="110.49,-204.667 100.141,-202.394 106.814,-210.624 110.49,-204.667"/>
</g>
<!-- ComputeIQMs_inputnode&#45;&gt;ComputeIQMs_outliers -->
<g id="edge13" class="edge"><title>ComputeIQMs_inputnode&#45;&gt;ComputeIQMs_outliers</title>
<path fill="none" stroke="black" d="M726.584,-328.576C618.564,-327.014 431.615,-317.435 277.293,-275 220.313,-259.332 159.302,-227.555 120.153,-206.521"/>
<polygon fill="black" stroke="black" points="121.636,-203.345 111.172,-201.684 118.316,-209.508 121.636,-203.345"/>
</g>
<!-- ComputeIQMs_gcor -->
<g id="node7" class="node"><title>ComputeIQMs_gcor</title>
<ellipse fill="none" stroke="black" cx="462.293" cy="-257" rx="74.187" ry="18"/>
<text text-anchor="middle" x="462.293" y="-253.3" font-family="Times,serif" font-size="14.00">gcor (transitional)</text>
</g>
<!-- ComputeIQMs_inputnode&#45;&gt;ComputeIQMs_gcor -->
<g id="edge14" class="edge"><title>ComputeIQMs_inputnode&#45;&gt;ComputeIQMs_gcor</title>
<path fill="none" stroke="black" d="M750.367,-316.765C693.637,-306.129 609.359,-289.654 536.293,-275 531.874,-274.114 527.324,-273.196 522.753,-272.267"/>
<polygon fill="black" stroke="black" points="523.253,-268.797 512.755,-270.224 521.851,-275.656 523.253,-268.797"/>
</g>
<!-- ComputeIQMs_inputnode&#45;&gt;ComputeIQMs_gcor -->
<g id="edge15" class="edge"><title>ComputeIQMs_inputnode&#45;&gt;ComputeIQMs_gcor</title>
<path fill="none" stroke="black" d="M757.284,-315.352C704.364,-304.707 624.197,-289.02 554.293,-275 546.688,-273.475 538.694,-271.857 530.715,-270.248"/>
<polygon fill="black" stroke="black" points="531.142,-266.764 520.648,-268.224 529.762,-273.627 531.142,-266.764"/>
</g>
<!-- ComputeIQMs_metadata -->
<g id="node8" class="node"><title>ComputeIQMs_metadata</title>
<ellipse fill="none" stroke="black" cx="242.293" cy="-185" rx="65.7887" ry="18"/>
<text text-anchor="middle" x="242.293" y="-181.3" font-family="Times,serif" font-size="14.00">metadata (bids)</text>
</g>
<!-- ComputeIQMs_inputnode&#45;&gt;ComputeIQMs_metadata -->
<g id="edge17" class="edge"><title>ComputeIQMs_inputnode&#45;&gt;ComputeIQMs_metadata</title>
<path fill="none" stroke="black" d="M727.112,-327.217C601.262,-324.693 377.669,-314.578 308.293,-275 283.371,-260.782 265.085,-232.919 254.163,-212.138"/>
<polygon fill="black" stroke="black" points="257.274,-210.535 249.665,-203.163 251.016,-213.671 257.274,-210.535"/>
</g>
<!-- ComputeIQMs_provenance -->
<g id="node9" class="node"><title>ComputeIQMs_provenance</title>
<ellipse fill="none" stroke="black" cx="648.293" cy="-257" rx="93.6835" ry="18"/>
<text text-anchor="middle" x="648.293" y="-253.3" font-family="Times,serif" font-size="14.00">provenance (interfaces)</text>
</g>
<!-- ComputeIQMs_inputnode&#45;&gt;ComputeIQMs_provenance -->
<g id="edge18" class="edge"><title>ComputeIQMs_inputnode&#45;&gt;ComputeIQMs_provenance</title>
<path fill="none" stroke="black" d="M778.23,-312.465C753.668,-302.169 721.245,-288.579 694.932,-277.549"/>
<polygon fill="black" stroke="black" points="696.116,-274.251 685.54,-273.613 693.41,-280.706 696.116,-274.251"/>
</g>
<!-- ComputeIQMs_datasink -->
<g id="node10" class="node"><title>ComputeIQMs_datasink</title>
<ellipse fill="none" stroke="black" cx="242.293" cy="-113" rx="63.0888" ry="18"/>
<text text-anchor="middle" x="242.293" y="-109.3" font-family="Times,serif" font-size="14.00">datasink (bids)</text>
</g>
<!-- ComputeIQMs_inputnode&#45;&gt;ComputeIQMs_datasink -->
<g id="edge16" class="edge"><title>ComputeIQMs_inputnode&#45;&gt;ComputeIQMs_datasink</title>
<path fill="none" stroke="black" d="M727.243,-327.37C613.92,-324.918 424.974,-314.766 369.293,-275 325.94,-244.038 351.701,-207.672 317.293,-167 306.649,-154.419 292.374,-143.357 279.136,-134.639"/>
<polygon fill="black" stroke="black" points="280.955,-131.649 270.634,-129.256 277.21,-137.563 280.955,-131.649"/>
</g>
<!-- ComputeIQMs_ComputeDVARS&#45;&gt;ComputeIQMs_measures -->
<g id="edge19" class="edge"><title>ComputeIQMs_ComputeDVARS&#45;&gt;ComputeIQMs_measures</title>
<path fill="none" stroke="black" d="M1140.53,-242.916C1068.97,-230.394 961.633,-211.61 890.075,-199.087"/>
<polygon fill="black" stroke="black" points="890.239,-195.562 879.785,-197.286 889.032,-202.458 890.239,-195.562"/>
</g>
<!-- ComputeIQMs_outputnode -->
<g id="node11" class="node"><title>ComputeIQMs_outputnode</title>
<ellipse fill="none" stroke="black" cx="242.293" cy="-41" rx="92.8835" ry="18"/>
<text text-anchor="middle" x="242.293" y="-37.3" font-family="Times,serif" font-size="14.00">outputnode (interfaces)</text>
</g>
<!-- ComputeIQMs_ComputeDVARS&#45;&gt;ComputeIQMs_outputnode -->
<g id="edge20" class="edge"><title>ComputeIQMs_ComputeDVARS&#45;&gt;ComputeIQMs_outputnode</title>
<path fill="none" stroke="black" d="M1167.94,-240.469C1108.64,-221.4 1003.73,-188.9 912.293,-167 701.661,-116.554 449.706,-74.3418 323.204,-54.3789"/>
<polygon fill="black" stroke="black" points="323.629,-50.9027 313.206,-52.8063 322.541,-57.8177 323.629,-50.9027"/>
</g>
<!-- ComputeIQMs_smoothness&#45;&gt;ComputeIQMs_measures -->
<g id="edge21" class="edge"><title>ComputeIQMs_smoothness&#45;&gt;ComputeIQMs_measures</title>
<path fill="none" stroke="black" d="M945.59,-240.291C920.776,-229.951 888.123,-216.346 861.713,-205.342"/>
<polygon fill="black" stroke="black" points="862.868,-202.031 852.291,-201.416 860.176,-208.493 862.868,-202.031"/>
</g>
<!-- ComputeIQMs_measures&#45;&gt;ComputeIQMs_datasink -->
<g id="edge22" class="edge"><title>ComputeIQMs_measures&#45;&gt;ComputeIQMs_datasink</title>
<path fill="none" stroke="black" d="M741.848,-175.028C629.656,-161.322 417.256,-135.374 309.143,-122.167"/>
<polygon fill="black" stroke="black" points="309.364,-118.668 299.013,-120.929 308.515,-125.616 309.364,-118.668"/>
</g>
<!-- ComputeIQMs_quality&#45;&gt;ComputeIQMs_datasink -->
<g id="edge23" class="edge"><title>ComputeIQMs_quality&#45;&gt;ComputeIQMs_datasink</title>
<path fill="none" stroke="black" d="M400.542,-169.666C368.459,-158.38 323.679,-142.628 289.939,-130.76"/>
<polygon fill="black" stroke="black" points="290.887,-127.383 280.293,-127.367 288.565,-133.987 290.887,-127.383"/>
</g>
<!-- ComputeIQMs_outliers&#45;&gt;ComputeIQMs_datasink -->
<g id="edge25" class="edge"><title>ComputeIQMs_outliers&#45;&gt;ComputeIQMs_datasink</title>
<path fill="none" stroke="black" d="M114.662,-168.811C139.595,-158.103 173.119,-143.707 199.552,-132.355"/>
<polygon fill="black" stroke="black" points="201.133,-135.485 208.94,-128.323 198.371,-129.053 201.133,-135.485"/>
</g>
<!-- ComputeIQMs_outliers&#45;&gt;ComputeIQMs_outputnode -->
<g id="edge24" class="edge"><title>ComputeIQMs_outliers&#45;&gt;ComputeIQMs_outputnode</title>
<path fill="none" stroke="black" d="M95.0818,-167.209C112.737,-148.76 142.509,-118.613 170.293,-95 182.689,-84.4647 197.004,-73.6719 209.589,-64.5985"/>
<polygon fill="black" stroke="black" points="211.869,-67.2711 217.98,-58.6159 207.805,-61.5715 211.869,-67.2711"/>
</g>
<!-- ComputeIQMs_gcor&#45;&gt;ComputeIQMs_datasink -->
<g id="edge26" class="edge"><title>ComputeIQMs_gcor&#45;&gt;ComputeIQMs_datasink</title>
<path fill="none" stroke="black" d="M491.49,-240.382C505.047,-231.415 519.797,-218.783 527.293,-203 534.157,-188.547 537.52,-179.305 527.293,-167 500.755,-135.072 390.044,-122.284 314.68,-117.227"/>
<polygon fill="black" stroke="black" points="314.496,-113.708 304.293,-116.563 314.05,-120.694 314.496,-113.708"/>
</g>
<!-- ComputeIQMs_metadata&#45;&gt;ComputeIQMs_datasink -->
<g id="edge27" class="edge"><title>ComputeIQMs_metadata&#45;&gt;ComputeIQMs_datasink</title>
<path fill="none" stroke="black" d="M208.737,-169.496C201.572,-160.204 199.952,-147.936 203.876,-137.299"/>
<polygon fill="black" stroke="black" points="206.973,-138.93 208.751,-128.485 200.848,-135.542 206.973,-138.93"/>
</g>
<!-- ComputeIQMs_metadata&#45;&gt;ComputeIQMs_datasink -->
<g id="edge28" class="edge"><title>ComputeIQMs_metadata&#45;&gt;ComputeIQMs_datasink</title>
<path fill="none" stroke="black" d="M219.25,-168.116C215.368,-159.703 214.343,-149.164 216.172,-139.628"/>
<polygon fill="black" stroke="black" points="219.596,-140.411 219.279,-129.821 212.922,-138.297 219.596,-140.411"/>
</g>
<!-- ComputeIQMs_metadata&#45;&gt;ComputeIQMs_datasink -->
<g id="edge29" class="edge"><title>ComputeIQMs_metadata&#45;&gt;ComputeIQMs_datasink</title>
<path fill="none" stroke="black" d="M230.536,-167.055C228.858,-159.145 228.391,-149.54 229.137,-140.688"/>
<polygon fill="black" stroke="black" points="232.601,-141.187 230.57,-130.789 225.673,-140.185 232.601,-141.187"/>
</g>
<!-- ComputeIQMs_metadata&#45;&gt;ComputeIQMs_datasink -->
<g id="edge30" class="edge"><title>ComputeIQMs_metadata&#45;&gt;ComputeIQMs_datasink</title>
<path fill="none" stroke="black" d="M242.293,-166.697C242.293,-158.983 242.293,-149.712 242.293,-141.112"/>
<polygon fill="black" stroke="black" points="245.793,-141.104 242.293,-131.104 238.793,-141.104 245.793,-141.104"/>
</g>
<!-- ComputeIQMs_metadata&#45;&gt;ComputeIQMs_datasink -->
<g id="edge31" class="edge"><title>ComputeIQMs_metadata&#45;&gt;ComputeIQMs_datasink</title>
<path fill="none" stroke="black" d="M254.049,-167.055C255.728,-159.145 256.195,-149.54 255.449,-140.688"/>
<polygon fill="black" stroke="black" points="258.912,-140.185 254.016,-130.789 251.985,-141.187 258.912,-140.185"/>
</g>
<!-- ComputeIQMs_metadata&#45;&gt;ComputeIQMs_datasink -->
<g id="edge32" class="edge"><title>ComputeIQMs_metadata&#45;&gt;ComputeIQMs_datasink</title>
<path fill="none" stroke="black" d="M265.336,-168.116C269.218,-159.703 270.243,-149.164 268.414,-139.628"/>
<polygon fill="black" stroke="black" points="271.664,-138.297 265.307,-129.821 264.99,-140.411 271.664,-138.297"/>
</g>
<!-- ComputeIQMs_metadata&#45;&gt;ComputeIQMs_datasink -->
<g id="edge33" class="edge"><title>ComputeIQMs_metadata&#45;&gt;ComputeIQMs_datasink</title>
<path fill="none" stroke="black" d="M275.849,-169.496C283.014,-160.204 284.634,-147.936 280.71,-137.299"/>
<polygon fill="black" stroke="black" points="283.738,-135.542 275.835,-128.485 277.613,-138.93 283.738,-135.542"/>
</g>
<!-- ComputeIQMs_provenance&#45;&gt;ComputeIQMs_datasink -->
<g id="edge34" class="edge"><title>ComputeIQMs_provenance&#45;&gt;ComputeIQMs_datasink</title>
<path fill="none" stroke="black" d="M634.164,-239.168C615.891,-218.608 582.02,-184.42 545.293,-167 471.935,-132.205 378.84,-120.046 315.325,-115.908"/>
<polygon fill="black" stroke="black" points="315.193,-112.394 305.001,-115.289 314.774,-119.381 315.193,-112.394"/>
</g>
<!-- ComputeIQMs_datasink&#45;&gt;ComputeIQMs_outputnode -->
<g id="edge35" class="edge"><title>ComputeIQMs_datasink&#45;&gt;ComputeIQMs_outputnode</title>
<path fill="none" stroke="black" d="M242.293,-94.6966C242.293,-86.9827 242.293,-77.7125 242.293,-69.1124"/>
<polygon fill="black" stroke="black" points="245.793,-69.1043 242.293,-59.1043 238.793,-69.1044 245.793,-69.1043"/>
</g>
</g>
</svg>
