# Blender v2.79 (sub 0) OBJ File: ''
# www.blender.org
v -1.000000 -1.000000 1.260390
v -1.000000 1.000000 1.191139
v -1.000000 -1.000000 -1.000000
v -1.000000 1.000000 -1.000000
v 1.000000 -1.000000 1.000000
v 1.000000 1.000000 1.000000
v 1.000000 -1.000000 -1.000000
v 1.000000 1.000000 -1.000000
v -1.000000 0.000000 1.887504
v 2.246086 -1.000000 1.000000
v 2.246086 1.000000 1.000000
v 2.246086 -1.000000 -1.000000
v 2.246086 1.000000 -1.000000
vn -1.0000 0.0000 0.0000
vn 0.0000 0.0000 -1.0000
vn 0.0000 1.0000 0.0000
vn 0.2681 0.0167 0.9632
vn 0.0000 -1.0000 0.0000
vn 1.0000 0.0000 0.0000
vn 0.0000 0.0000 1.0000
s off
f 1//1 9//1 2//1 4//1 3//1
f 3//2 4//2 8//2 13//2 12//2 7//2
f 8//3 6//3 11//3 13//3
f 5//4 6//4 2//4 9//4 1//4
f 3//5 7//5 5//5 1//5
f 4//3 6//3 8//3
f 4//3 2//3 6//3
f 12//6 13//6 11//6 10//6
f 6//7 5//7 10//7 11//7
f 5//5 7//5 12//5 10//5
