<?xml version="1.0" encoding="UTF-8" standalone="no"?>
<svg
   xmlns:dc="http://purl.org/dc/elements/1.1/"
   xmlns:cc="http://creativecommons.org/ns#"
   xmlns:rdf="http://www.w3.org/1999/02/22-rdf-syntax-ns#"
   xmlns:svg="http://www.w3.org/2000/svg"
   xmlns="http://www.w3.org/2000/svg"
   xmlns:sodipodi="http://sodipodi.sourceforge.net/DTD/sodipodi-0.dtd"
   xmlns:inkscape="http://www.inkscape.org/namespaces/inkscape"
   width="64"
   height="64"
   version="1"
   id="svg16"
   sodipodi:docname="preferences-desktop-emoticons2.svg"
   inkscape:version="0.92.2 5c3e80d, 2017-08-06">
  <metadata
     id="metadata22">
    <rdf:RDF>
      <cc:Work
         rdf:about="">
        <dc:format>image/svg+xml</dc:format>
        <dc:type
           rdf:resource="http://purl.org/dc/dcmitype/StillImage" />
      </cc:Work>
    </rdf:RDF>
  </metadata>
  <defs
     id="defs20" />
  <sodipodi:namedview
     pagecolor="#ffffff"
     bordercolor="#666666"
     borderopacity="1"
     objecttolerance="10"
     gridtolerance="10"
     guidetolerance="10"
     inkscape:pageopacity="0"
     inkscape:pageshadow="2"
     inkscape:window-width="811"
     inkscape:window-height="480"
     id="namedview18"
     showgrid="false"
     inkscape:zoom="3.6875"
     inkscape:cx="23.59322"
     inkscape:cy="32"
     inkscape:window-x="43"
     inkscape:window-y="27"
     inkscape:window-maximized="0"
     inkscape:current-layer="svg16" />
  <rect
     style="fill:#87decd"
     width="56"
     height="56"
     x="-60"
     y="-60"
     rx="28"
     ry="28"
     transform="matrix(0,-1,-1,0,0,0)"
     id="rect2" />
  <path
     style="opacity:0.1;fill:#ffffff"
     d="M 32 4 C 16.488443 4 4 16.488 4 32 C 4 32.113556 4.0112848 32.224032 4.0175781 32.335938 C 4.3691112 17.134181 16.711164 5 32 5 C 47.288835 5 59.630889 17.134181 59.982422 32.335938 C 59.988693 32.224113 60 32.113448 60 32 C 60 16.488 47.511556 4 32 4 z"
     id="path4" />
  <g
     style="fill:#3f3f3f"
     transform="matrix(1.4,0,0,1.4,-75.874,4.5156)"
     id="g12">
    <circle
       cx="69.91"
       cy="12.489"
       r="2.857"
       id="circle6" />
    <circle
       cx="84.196"
       cy="12.489"
       r="2.857"
       id="circle8" />
    <path
       d="m 69.444,24.355 a 8.7947,10.554 0 0 0 7.6094,5.2768 8.7947,10.554 0 0 0 7.6026,-5.2768 l -1.0684,0 a 8.7947,10.554 0 0 1 -6.5342,3.5179 8.7947,10.554 0 0 1 -6.5376,-3.5179 l -1.0718,0 z"
       id="path10" />
  </g>
  <path
     style="opacity:0.2"
     d="M 4.0488281 33 C 4.0490359 33.005918 4.0505699 33.011661 4.0507812 33.017578 C 4.0510045 33.011726 4.0505744 33.005856 4.0507812 33 L 4.0488281 33 z M 4.0507812 33.017578 C 4.0382711 33.34552 4 33.667926 4 34 C 4 34.224037 4.0123968 34.445222 4.0175781 34.667969 C 4.0296765 34.451306 4.0424994 34.234678 4.0507812 34.017578 C 4.0505699 34.011661 4.0490359 34.005918 4.0488281 34 L 4.0507812 34 C 4.0505744 34.005856 4.0510045 34.011726 4.0507812 34.017578 C 4.5877909 49.051232 16.83157 61 32 61 C 47.174 61 59.421219 49.042 59.949219 34 C 59.957015 34.222266 59.969975 34.443039 59.982422 34.664062 C 59.987543 34.44261 60 34.222728 60 34 C 60 33.66232 59.960959 33.33472 59.949219 33 C 59.421219 48.042 47.174 60 32 60 C 16.83157 60 4.5877909 48.051232 4.0507812 33.017578 z"
     id="path14" />
</svg>
